<?xml version="1.0" encoding="UTF-8" standalone="no"?>
<!-- Created with Inkscape (http://www.inkscape.org/) -->

<svg
   xmlns:dc="http://purl.org/dc/elements/1.1/"
   xmlns:cc="http://creativecommons.org/ns#"
   xmlns:rdf="http://www.w3.org/1999/02/22-rdf-syntax-ns#"
   xmlns:svg="http://www.w3.org/2000/svg"
   xmlns="http://www.w3.org/2000/svg"
   xmlns:sodipodi="http://sodipodi.sourceforge.net/DTD/sodipodi-0.dtd"
   xmlns:inkscape="http://www.inkscape.org/namespaces/inkscape"
   id="svg2"
   version="1.1"
   inkscape:version="0.48.2 r9819"
   width="1500"
   height="1500"
   xml:space="preserve"
   sodipodi:docname="Detektorzwiebel.svg"><metadata
     id="metadata8"><rdf:RDF><cc:Work
         rdf:about=""><dc:format>image/svg+xml</dc:format><dc:type
           rdf:resource="http://purl.org/dc/dcmitype/StillImage" /><dc:title /></cc:Work></rdf:RDF></metadata><defs
     id="defs6" /><sodipodi:namedview
     pagecolor="#ffffff"
     bordercolor="#666666"
     borderopacity="1"
     objecttolerance="10"
     gridtolerance="10"
     guidetolerance="10"
     inkscape:pageopacity="0"
     inkscape:pageshadow="2"
     inkscape:window-width="1440"
     inkscape:window-height="799"
     id="namedview4"
     showgrid="false"
     fit-margin-top="0"
     fit-margin-left="0"
     fit-margin-right="0"
     fit-margin-bottom="0"
     inkscape:zoom="0.18646069"
     inkscape:cx="223.18906"
     inkscape:cy="-332.62808"
     inkscape:window-x="0"
     inkscape:window-y="0"
     inkscape:window-maximized="1"
     inkscape:current-layer="g10"><inkscape:grid
       type="xygrid"
       id="grid3197" /></sodipodi:namedview><g
     id="g10"
     inkscape:groupmode="layer"
     inkscape:label="Detektorzwiebel"
     transform="matrix(1.25,0,0,-1.25,1530.7017,724.53798)"><path
       sodipodi:type="arc"
       style="fill:#775fae;fill-opacity:1;stroke:none"
       id="path3159"
       sodipodi:cx="-383.35925"
       sodipodi:cy="246.78549"
       sodipodi:rx="117.61139"
       sodipodi:ry="117.61139"
       d="m -265.74786,246.78549 c 0,64.95498 -52.65642,117.61139 -117.61139,117.61139 -64.95498,0 -117.61139,-52.65641 -117.61139,-117.61139 0,-64.95497 52.65641,-117.61139 117.61139,-117.61139 64.95497,0 117.61139,52.65642 117.61139,117.61139 z"
       transform="matrix(4.8871863,0,0,-4.8871863,1248.9868,1185.7171)" /><path
       transform="matrix(4.1665756,0,0,-4.1665756,972.73402,1007.8808)"
       d="m -265.74786,246.78549 c 0,64.95498 -52.65642,117.61139 -117.61139,117.61139 -64.95498,0 -117.61139,-52.65641 -117.61139,-117.61139 0,-64.95497 52.65641,-117.61139 117.61139,-117.61139 64.95497,0 117.61139,52.65642 117.61139,117.61139 z"
       sodipodi:ry="117.61139"
       sodipodi:rx="117.61139"
       sodipodi:cy="246.78549"
       sodipodi:cx="-383.35925"
       id="path3157"
       style="fill:#9b6fff;fill-opacity:1;stroke:none"
       sodipodi:type="arc" /><path
       sodipodi:type="arc"
       style="fill:#a39dff;fill-opacity:1;stroke:none"
       id="path3155"
       sodipodi:cx="-383.35925"
       sodipodi:cy="246.78549"
       sodipodi:rx="117.61139"
       sodipodi:ry="117.61139"
       d="m -265.74786,246.78549 c 0,64.95498 -52.65642,117.61139 -117.61139,117.61139 -64.95498,0 -117.61139,-52.65641 -117.61139,-117.61139 0,-64.95497 52.65641,-117.61139 117.61139,-117.61139 64.95497,0 117.61139,52.65642 117.61139,117.61139 z"
       transform="matrix(3.4337512,0,0,-3.4337512,691.79902,827.0304)" /><path
       transform="matrix(2.6276443,0,0,-2.6276443,382.77052,628.09492)"
       d="m -265.74786,246.78549 c 0,64.95498 -52.65642,117.61139 -117.61139,117.61139 -64.95498,0 -117.61139,-52.65641 -117.61139,-117.61139 0,-64.95497 52.65641,-117.61139 117.61139,-117.61139 64.95497,0 117.61139,52.65642 117.61139,117.61139 z"
       sodipodi:ry="117.61139"
       sodipodi:rx="117.61139"
       sodipodi:cy="246.78549"
       sodipodi:cx="-383.35925"
       id="path3153"
       style="fill:#b8c3ff;fill-opacity:1;stroke:none"
       sodipodi:type="arc" /><path
       sodipodi:type="arc"
       style="fill:#d9e4fc;fill-opacity:1;stroke:none"
       id="path3149"
       sodipodi:cx="-383.35925"
       sodipodi:cy="246.78549"
       sodipodi:rx="117.61139"
       sodipodi:ry="117.61139"
       d="m -265.74786,246.78549 c 0,64.95498 -52.65642,117.61139 -117.61139,117.61139 -64.95498,0 -117.61139,-52.65641 -117.61139,-117.61139 0,-64.95497 52.65641,-117.61139 117.61139,-117.61139 64.95497,0 117.61139,52.65642 117.61139,117.61139 z"
       transform="matrix(1.7848962,0,0,-1.7848962,59.695187,420.11692)" /><path
       inkscape:connector-curvature="0"
       id="path3162"
       d="m -1948.3747,-1003.9985 c -317.4471,0 -574.7751,-257.3279 -574.7751,-574.775 0,-317.4471 257.328,-574.8001 574.7751,-574.8001 317.447,0 574.7999,257.353 574.7999,574.8001 1e-4,317.4471 -257.3529,574.775 -574.7999,574.775 z m 0,-72.45 c 277.4263,0 502.325,-224.8987 502.325,-502.325 0,-277.4264 -224.8987,-502.325 -502.325,-502.325 -277.4264,0 -502.3251,224.8986 -502.3251,502.325 0,277.4263 224.8987,502.325 502.3251,502.325 z"
       style="fill:#ffc1b4;fill-opacity:0.99607843;stroke:none" /><path
       sodipodi:type="arc"
       style="fill:none;stroke:#ffc1b4;stroke-width:9.29709053"
       id="path3195"
       sodipodi:cx="2144.3142"
       sodipodi:cy="2893.3389"
       sodipodi:rx="359.97171"
       sodipodi:ry="359.97171"
       d="m 2504.2859,2893.3389 c 0,198.8069 -161.1648,359.9717 -359.9717,359.9717 -198.8069,0 -359.9717,-161.1648 -359.9717,-359.9717 0,-198.8069 161.1648,-359.9717 359.9717,-359.9717 198.8069,0 359.9717,161.1648 359.9717,359.9717 z"
       transform="matrix(1.3767749,0,0,-1.3767749,-3576.7993,2859.1068)" /><path
       transform="matrix(0.84006601,0,0,-0.84006601,-2425.9268,1306.2261)"
       d="m 2504.2859,2893.3389 c 0,198.8069 -161.1648,359.9717 -359.9717,359.9717 -198.8069,0 -359.9717,-161.1648 -359.9717,-359.9717 0,-198.8069 161.1648,-359.9717 359.9717,-359.9717 198.8069,0 359.9717,161.1648 359.9717,359.9717 z"
       sodipodi:ry="359.97171"
       sodipodi:rx="359.97171"
       sodipodi:cy="2893.3389"
       sodipodi:cx="2144.3142"
       id="path3967"
       style="fill:none;stroke:#ffc1b4;stroke-width:15.23689747"
       sodipodi:type="arc" /><path
       transform="matrix(1.6445737,0,0,-1.6445737,-4151.044,4737.9394)"
       d="m 2504.2859,2893.3389 c 0,198.8069 -161.1648,359.9717 -359.9717,359.9717 -198.8069,0 -359.9717,-161.1648 -359.9717,-359.9717 0,-198.8069 161.1648,-359.9717 359.9717,-359.9717 198.8069,0 359.9717,161.1648 359.9717,359.9717 z"
       sodipodi:ry="359.97171"
       sodipodi:rx="359.97171"
       sodipodi:cy="2893.3389"
       sodipodi:cx="2144.3142"
       id="path3969"
       style="fill:none;stroke:#ffc1b4;stroke-width:7.78317308"
       sodipodi:type="arc" /><path
       style="fill:#ff0000;stroke:none"
       d="m 1000.9062,62.375 4.5313,-15.0625 C 976.32053,36.887136 946.59816,28.297238 916.40625,21.59375 l -3.5625,15.0625 c 6.70454,1.526108 13.45983,2.949419 20.09375,4.65625 11.82218,3.04171 23.5392,6.365193 35.125,9.96875 11.06833,3.442608 22.00498,7.152192 32.8437,11.09375 z"
       id="path3177"
       transform="matrix(0.8,0,0,-0.8,-1224.5614,579.63038)"
       inkscape:connector-curvature="0"
       sodipodi:nodetypes="ccccssc" /></g></svg>