<?xml version="1.0" encoding="UTF-8" standalone="no"?>
<!-- Created with Inkscape (http://www.inkscape.org/) -->

<svg
   xmlns:dc="http://purl.org/dc/elements/1.1/"
   xmlns:cc="http://creativecommons.org/ns#"
   xmlns:rdf="http://www.w3.org/1999/02/22-rdf-syntax-ns#"
   xmlns:svg="http://www.w3.org/2000/svg"
   xmlns="http://www.w3.org/2000/svg"
   xmlns:sodipodi="http://sodipodi.sourceforge.net/DTD/sodipodi-0.dtd"
   xmlns:inkscape="http://www.inkscape.org/namespaces/inkscape"
   id="svg3004"
   version="1.1"
   inkscape:version="0.48.2 r9819"
   width="359.49149"
   height="202.02606"
   xml:space="preserve"
   sodipodi:docname="roboter_CPU_GPU.svg"><metadata
     id="metadata3010"><rdf:RDF><cc:Work
         rdf:about=""><dc:format>image/svg+xml</dc:format><dc:type
           rdf:resource="http://purl.org/dc/dcmitype/StillImage" /><dc:title /></cc:Work></rdf:RDF></metadata><defs
     id="defs3008" /><sodipodi:namedview
     pagecolor="#ffffff"
     bordercolor="#666666"
     borderopacity="1"
     objecttolerance="10"
     gridtolerance="10"
     guidetolerance="10"
     inkscape:pageopacity="0"
     inkscape:pageshadow="2"
     inkscape:window-width="1680"
     inkscape:window-height="946"
     id="namedview3006"
     showgrid="false"
     inkscape:zoom="2.0435677"
     inkscape:cx="162.79054"
     inkscape:cy="106.41407"
     inkscape:window-x="1440"
     inkscape:window-y="22"
     inkscape:window-maximized="1"
     inkscape:current-layer="g3014"
     fit-margin-top="0"
     fit-margin-left="0"
     fit-margin-right="0"
     fit-margin-bottom="0" /><g
     id="g3012"
     inkscape:groupmode="layer"
     inkscape:label="roboter"
     transform="matrix(1.25,0,0,-1.25,8.2516496,202.02731)"><g
       id="g3014"><path
         d="m 46.133,0.688 c 0,0.379 -0.957,0.508 -2.125,0.285 -2.422,-0.464 -2.516,-1.402 1.008,10.028 2,6.492 2.504,7.398 4.097,7.398 2.285,0 2.289,0.539 0.02,2.496 l -1.801,1.547 3.563,2.531 -1.782,1.512 -1.781,1.516 1.664,1.418 1.668,1.418 -1.668,1.371 -1.664,1.367 1.734,1.488 c 1.7,1.457 1.707,1.52 0.219,2.793 -1.637,1.399 -1.305,3.742 0.531,3.742 0.614,0 1.114,0.364 1.114,0.801 0,0.442 -0.5,0.801 -1.114,0.801 -1.972,0 -2.343,2.695 -0.535,3.898 1.907,1.266 2.227,2.672 0.449,1.993 -1.039,-0.403 -1.199,1.519 -1.199,14.414 l 0,14.875 -2.738,1.144 c -2.289,0.953 -3.285,1.985 -5.727,5.918 -0.429,0.688 -13.769,-3.375 -15.136,-4.609 -0.879,-0.797 -2.379,-1.688 -3.336,-1.977 -0.957,-0.289 -2.895,-2.328 -4.309,-4.527 -2.14,-3.336 -2.586,-4.836 -2.66,-8.969 l -0.094,-4.961 -3.777,-1.992 c -3.539,-1.871 -3.859,-1.91 -5.121,-0.648 -1.258,1.253 -1.258,1.484 -0.024,3.367 0.727,1.109 1.321,2.472 1.321,3.031 0,0.559 -0.91,-0.324 -2.024,-1.965 -1.804,-2.656 -2.195,-2.871 -3.633,-1.984 -1.062,0.656 -1.468,1.535 -1.187,2.594 0.234,0.878 0.43,2.761 0.434,4.183 0.011,2.289 0.453,2.805 3.812,4.457 2.09,1.031 4.34,1.75 5,1.602 1.66,-0.375 5.902,6.551 6.398,10.453 0.559,4.375 3.415,6.504 7.04,5.238 3.789,-1.32 16.41,1.797 19.761,4.879 1.321,1.215 3.211,2.453 4.199,2.75 0.993,0.301 1.801,0.879 1.801,1.289 0,0.41 0.719,0.746 1.602,0.746 1.293,0 1.597,0.535 1.597,2.801 0,2.164 -0.328,2.801 -1.437,2.801 -2.039,0 -3.363,1.574 -3.363,4 0,2.652 1.359,4 4.035,4 1.496,0 2.387,0.605 3.055,2.074 1.636,3.594 4.804,7.215 7.648,8.746 2.144,1.156 2.949,2.266 3.711,5.129 1.363,5.137 2.851,7.25 5.105,7.25 3.457,0 4.262,-0.844 5.754,-6.055 0.809,-2.828 1.891,-5.144 2.399,-5.144 1.574,0 8.828,-7.028 9.886,-9.578 0.782,-1.895 1.5,-2.422 3.278,-2.422 4.32,0 5.289,-6.629 1.117,-7.676 -1.094,-0.273 -1.992,-0.91 -1.996,-1.41 -0.008,-0.504 -0.231,-1.727 -0.496,-2.715 -0.387,-1.453 -0.153,-1.801 1.211,-1.801 0.933,0 1.695,-0.269 1.699,-0.597 0,-0.332 1.621,-1.27 3.602,-2.082 l 3.597,-1.481 6.125,2.234 c 3.836,1.399 7.113,3.223 8.77,4.879 2.933,2.934 4.668,3.262 7.324,1.403 1.355,-0.95 1.777,-2.039 1.777,-4.602 0,-4.305 3.992,-12.953 6.25,-13.547 0.895,-0.23 2.371,-1.89 3.289,-3.683 l 1.66,-3.258 -2.195,-3.633 c -2.851,-4.727 -5.004,-4.91 -5.004,-0.434 0,1.762 -0.359,3.204 -0.801,3.204 -0.437,0 -0.8,-1.442 -0.8,-3.204 0,-2.82 -0.219,-3.199 -1.871,-3.199 -1.414,0 -2.387,0.942 -3.965,3.844 l -2.09,3.844 1.937,3.156 c 1.067,1.738 1.954,3.801 1.965,4.59 0.043,2.39 -3,7.535 -4.722,7.984 -0.891,0.235 -4.766,-0.742 -8.618,-2.168 -6.257,-2.316 -7.05,-2.84 -7.48,-4.922 -0.758,-3.668 -2.481,-5.804 -5.738,-7.109 l -3.016,-1.203 0,-20.817 6,0 c 5.813,0 6,0.063 6,1.938 0,3.129 0.887,4.578 3.465,5.66 4.984,2.098 10.289,-2.582 8.437,-7.449 -0.425,-1.121 -0.437,-2.973 -0.031,-4.453 1.277,-4.629 -1.371,-8.442 -5.871,-8.442 -3.219,0 -5.27,1.7 -5.922,4.903 l -0.539,2.644 -5.769,0.235 c -5.711,0.234 -5.77,0.214 -5.77,-1.797 0,-1.387 -0.449,-2.055 -1.402,-2.09 -1.114,-0.043 -1.032,-0.231 0.402,-0.922 2.145,-1.035 2.352,-3.414 0.398,-4.586 -1.332,-0.801 -1.332,-0.879 0,-1.68 0.77,-0.461 1.403,-1.504 1.403,-2.312 0,-0.813 -0.633,-1.719 -1.403,-2.016 -1.332,-0.511 -1.332,-0.578 0,-1.324 1.981,-1.113 1.754,-3.687 -0.386,-4.367 l -1.785,-0.567 1.785,-0.66 c 1.058,-0.39 1.789,-1.336 1.789,-2.312 0,-0.981 -0.731,-1.922 -1.789,-2.313 l -1.785,-0.66 1.785,-0.57 c 2.301,-0.727 2.293,-3.11 -0.012,-4.719 l -1.801,-1.254 2.438,-0.043 c 2.398,-0.043 2.476,-0.176 4.906,-8.453 1.707,-5.812 2.199,-8.578 1.59,-8.953 -1.457,-0.902 -18.016,-1.195 -25.934,-0.457 -4.07,0.379 -7.398,0.402 -7.398,0.055 0,-0.348 -4.5,-0.633 -10,-0.633 -5.5,0 -10,0.308 -10,0.687 z m 24,9.336 0,7.621 L 59.535,17.423 48.941,17.2 47.238,12.399 C 46.301,9.759 45.281,6.43 44.969,5.001 l -0.563,-2.602 25.727,0 0,7.625 z M 67.488,3.712 c -0.64,0.64 0.082,1.886 1.09,1.886 0.414,0 0.754,-0.539 0.754,-1.199 0,-1.238 -0.945,-1.59 -1.844,-0.687 z m 1.106,5.734 c -0.035,0.602 -0.492,0.809 -1.063,0.484 -0.793,-0.449 -0.797,-0.347 -0.011,0.5 1.136,1.227 2.179,0.571 1.558,-0.98 C 68.734,8.587 68.645,8.587 68.594,9.446 z m -1.106,5.465 c -0.64,0.641 0.082,1.891 1.09,1.891 0.414,0 0.754,-0.543 0.754,-1.204 0,-1.234 -0.945,-1.586 -1.844,-0.687 z M 97.766,4.598 c -0.297,1.211 -1.274,4.641 -2.172,7.625 L 93.961,17.645 72.133,17.2 71.902,9.802 l -0.23,-7.403 26.633,0 -0.539,2.199 z M 73.039,6.227 c -0.215,0.348 0.277,0.629 1.094,0.629 0.812,0 1.305,-0.281 1.094,-0.629 -0.215,-0.343 -0.707,-0.629 -1.094,-0.629 -0.391,0 -0.883,0.286 -1.094,0.629 z m -0.074,5.719 c -0.59,0.957 0.914,1.906 1.98,1.246 0.895,-0.555 0.305,-1.992 -0.812,-1.992 -0.391,0 -0.914,0.336 -1.168,0.746 z M 90.133,19.2 c 0,0.512 -6.785,0.801 -18.754,0.801 -11.641,0 -18.941,-0.305 -19.246,-0.801 -0.324,-0.523 6.125,-0.801 18.75,-0.801 12.301,0 19.25,0.289 19.25,0.801 z m 2.215,3.652 c -0.539,0.539 -41.567,0.465 -42.106,-0.074 -0.207,-0.207 9.281,-0.379 21.09,-0.379 11.805,0 21.262,0.203 21.016,0.453 z m -11.172,2.543 c -5.145,0.141 -13.785,0.141 -19.199,0.004 -5.415,-0.14 -1.207,-0.254 9.355,-0.254 10.559,0 14.988,0.114 9.844,0.25 z m 10.957,3.407 c -0.309,0.5 -8.278,0.796 -21.25,0.796 -13.301,0 -20.75,-0.285 -20.75,-0.796 0,-0.516 7.613,-0.801 21.246,-0.801 13.961,0 21.078,0.273 20.754,0.801 z M 80.73,30.997 c -5.39,0.14 -14.21,0.14 -19.597,0 -5.391,-0.137 -0.981,-0.25 9.797,-0.25 10.781,0 15.191,0.113 9.8,0.25 z m 11.403,3.402 c 0.324,0.528 -6.793,0.801 -20.754,0.801 -13.633,0 -21.246,-0.285 -21.246,-0.801 0,-0.512 7.449,-0.801 20.75,-0.801 12.972,0 20.941,0.301 21.25,0.801 z m -20,2.371 c -10.121,0.239 -18.742,0.16 -19.16,-0.172 -0.418,-0.328 7.859,-0.523 18.398,-0.429 l 19.16,0.172 -18.398,0.429 z m 10.246,3.828 c -5.805,0.137 -15.524,0.137 -21.602,0 -6.074,-0.136 -1.324,-0.246 10.555,-0.25 11.879,0 16.852,0.114 11.047,0.25 z m 7.754,1.801 c 0,0.512 -6.801,0.801 -18.801,0.801 -12,0 -18.801,-0.289 -18.801,-0.801 0,-0.512 6.801,-0.801 18.801,-0.801 12,0 18.801,0.289 18.801,0.801 z m -7.754,3.797 c -5.805,0.137 -15.524,0.137 -21.602,0.004 -6.074,-0.137 -1.324,-0.25 10.555,-0.25 11.879,0 16.852,0.109 11.047,0.246 z m 31.805,1.031 c 1.773,0.95 2.152,5.45 0.586,7.012 -0.747,0.746 -0.747,1.176 0,1.922 0.531,0.527 0.96,2.074 0.96,3.437 0,3.172 -1.261,4.403 -4.511,4.403 -3.399,0 -5.207,-2.399 -4.266,-5.672 l 0.668,-2.328 -7.144,0 c -4.231,0 -7.145,-0.328 -7.145,-0.801 0,-0.473 2.879,-0.801 7.039,-0.801 l 7.039,0 -0.344,-2.933 c -0.504,-4.313 3.039,-6.422 7.118,-4.239 z m -4.274,1.68 c -3.109,1.742 -0.344,6.281 2.801,4.598 0.781,-0.418 1.422,-1.457 1.422,-2.305 0,-2.012 -2.399,-3.313 -4.223,-2.293 z m 2.922,1.922 c 0.273,0.715 -0.051,1.433 -0.77,1.707 -1.492,0.574 -3.124,-0.848 -2.374,-2.066 0.785,-1.27 2.597,-1.063 3.144,0.359 z m -4.055,7.281 c -0.66,1.723 0.762,3.891 2.555,3.891 1.793,0 3.215,-2.168 2.551,-3.891 -0.656,-1.711 -4.445,-1.711 -5.106,0 z m 3.754,1.09 c 0,0.879 -0.48,1.602 -1.066,1.602 -1.504,0 -2.094,-0.77 -1.594,-2.079 0.652,-1.703 2.66,-1.343 2.66,0.477 z M 90.133,48.802 c 0,0.507 -6.785,0.796 -18.754,0.796 -11.641,0 -18.941,-0.3 -19.246,-0.796 -0.324,-0.528 6.125,-0.801 18.75,-0.801 12.301,0 19.25,0.289 19.25,0.801 z m 0.41,2.113 c 0.652,0.25 1.187,0.765 1.187,1.144 0,0.379 -0.503,0.496 -1.117,0.262 -1.308,-0.504 -2.41,0.902 -1.656,2.117 0.352,0.574 0.875,0.543 1.645,-0.097 0.968,-0.801 1.128,1.886 1.128,18.687 l 0,19.621 -1.707,-0.445 c -1.234,-0.324 -1.597,-0.137 -1.312,0.676 0.215,0.617 0.984,1.07 1.707,1.007 0.816,-0.066 1.312,0.497 1.312,1.489 0,1.344 -0.347,1.508 -2.199,1.039 -9.586,-2.426 -23.039,-2.789 -32.199,-0.871 -3.301,0.691 -6.27,1.254 -6.602,1.254 -0.328,0.004 -0.597,-10.426 -0.597,-23.168 l 0,-23.172 19.609,0 c 10.789,0 20.149,0.207 20.801,0.457 z m -39.211,1.887 c -0.652,1.054 0.305,2.55 1.254,1.964 0.973,-0.601 0.965,-2.765 -0.008,-2.765 -0.414,0 -0.976,0.359 -1.246,0.801 z m 3.047,2.906 c -0.277,0.722 -0.137,1.89 0.312,2.601 0.688,1.094 2.989,1.325 15.125,1.52 15.575,0.246 17.485,0.043 18.243,-1.922 1.203,-3.141 -0.61,-3.508 -17.25,-3.508 -14.008,0 -15.989,0.16 -16.43,1.309 z m 32.973,0.328 c 0.285,0.457 0.082,1.359 -0.45,2 -0.785,0.945 -3.816,1.164 -16.023,1.164 -15.074,0 -16.625,-0.281 -15.645,-2.84 0.371,-0.961 3.145,-1.16 16.024,-1.16 9.961,0 15.765,0.301 16.094,0.836 z m -31.2,9.523 c -0.906,1.75 -1.222,4.969 -1.222,12.438 0,9.633 0.09,10.164 1.965,12.039 1.914,1.914 2.273,1.965 14.222,1.965 16.723,0 15.813,0.82 15.813,-14.321 0,-10.445 -0.168,-11.988 -1.461,-13.156 C 84.23,63.403 81.957,63.2 70.688,63.2 l -13.317,0 -1.219,2.359 z m 13.981,11.641 0,13.199 -5.34,0 c -8.008,0 -8.262,-0.394 -8.262,-12.769 0,-12.95 0.332,-13.45 9,-13.567 l 4.602,-0.062 0,13.199 z m -10.403,2 c -2.121,2.125 -2.023,4.922 0.254,7.062 3.504,3.29 8.547,1.293 8.547,-3.382 0,-4.821 -5.402,-7.078 -8.801,-3.68 z m 7.04,0.16 c 1.472,1.469 1.144,5.027 -0.606,6.61 -3.621,3.281 -8.824,-1.422 -6.129,-5.536 1.449,-2.211 5.027,-2.781 6.735,-1.074 z m -3.84,3.887 c 0,0.465 0.363,0.625 0.8,0.351 0.442,-0.269 0.801,-0.652 0.801,-0.843 0,-0.196 -0.359,-0.356 -0.801,-0.356 -0.437,0 -0.8,0.383 -0.8,0.848 z m 20,-18.445 c 0.832,0.535 -0.715,0.777 -5.047,0.785 -3.961,0.008 -6.067,-0.278 -5.75,-0.785 0.633,-1.024 9.215,-1.024 10.797,0 z m 2.402,2.398 c 0,0.469 -2.801,0.801 -6.801,0.801 -4,0 -6.801,-0.332 -6.801,-0.801 0,-0.469 2.801,-0.801 6.801,-0.801 4,0 6.801,0.332 6.801,0.801 z m 0,2.398 c 0,0.473 -2.801,0.801 -6.801,0.801 -4,0 -6.801,-0.328 -6.801,-0.801 0,-0.468 2.801,-0.796 6.801,-0.796 4,0 6.801,0.328 6.801,0.796 z m 0,2.403 c 0,0.449 -2.707,0.871 -6.199,0.961 l -6.203,0.16 6.203,0.273 6.199,0.274 0,4.73 -13.258,0 0,-7.199 6.629,0 c 3.887,0 6.629,0.332 6.629,0.801 z M 73.98,76.548 c 0.579,0.23 1.27,0.203 1.536,-0.063 0.265,-0.269 -0.207,-0.457 -1.051,-0.422 -0.934,0.039 -1.121,0.227 -0.485,0.485 z m 4.352,0.023 c 1.211,0.184 3.188,0.184 4.398,0 1.211,-0.18 0.223,-0.332 -2.199,-0.332 -2.418,0 -3.41,0.152 -2.199,0.332 z m 7,3.43 c 0,0.469 -2.801,0.801 -6.801,0.801 -4,0 -6.801,-0.332 -6.801,-0.801 0,-0.473 2.801,-0.801 6.801,-0.801 4,0 6.801,0.328 6.801,0.801 z m 0,2.398 c 0,0.473 -2.801,0.801 -6.801,0.801 -4,0 -6.801,-0.328 -6.801,-0.801 0,-0.469 2.801,-0.801 6.801,-0.801 4,0 6.801,0.332 6.801,0.801 z m 0,2.403 c 0,0.468 -2.801,0.796 -6.801,0.796 -4,0 -6.801,-0.328 -6.801,-0.796 0,-0.473 2.801,-0.801 6.801,-0.801 4,0 6.801,0.328 6.801,0.801 z m 0,2.457 c 0,2.16 -2.418,3.14 -7.742,3.14 -5.258,0 -5.461,-0.074 -5.574,-2 -0.114,-1.984 -0.059,-2 6.601,-2 4.242,0 6.715,0.317 6.715,0.86 z M 50.93,93.2 c 0,0.66 0.543,1.199 1.203,1.199 0.66,0 1.199,-0.539 1.199,-1.199 0,-0.66 -0.539,-1.199 -1.199,-1.199 -0.66,0 -1.203,0.539 -1.203,1.199 z M 10.531,59.919 c 1.895,1.105 2.453,2.043 2.657,4.445 0.136,1.676 -0.11,3.41 -0.551,3.852 -0.981,0.98 6.777,12.875 7.929,12.16 0.418,-0.254 1.571,0.379 2.563,1.41 1.269,1.316 4.109,2.418 9.601,3.719 5.297,1.254 7.801,2.207 7.801,2.968 0,1.434 0.184,1.45 -8.711,-0.836 -6.621,-1.699 -7.718,-1.792 -9.242,-0.792 -1.508,0.984 -1.961,0.964 -3.562,-0.157 C 17.641,85.723 17.285,84.88 17.602,83.302 18.195,80.333 11.457,70.126 9.344,70.798 8.551,71.048 6.602,70.634 5.016,69.88 2.328,68.598 2.133,68.255 2.133,64.868 l 0,-3.641 2.027,2.989 c 1.985,2.921 2.07,2.957 4.016,1.679 l 1.988,-1.3 -1.98,-2.598 c -2.801,-3.672 -1.84,-4.524 2.347,-2.078 z m 9.528,23.582 c -0.676,1.765 0.222,2.668 1.445,1.445 0.723,-0.723 0.726,-1.168 0.016,-1.879 -0.715,-0.711 -1.059,-0.609 -1.461,0.434 z m 105.273,-7.903 c 0,3.469 0.09,3.602 2.398,3.602 2.329,0 2.403,-0.117 2.426,-3.801 l 0.024,-3.801 1.914,3.118 1.914,3.113 -1.863,2.887 c -1.024,1.586 -2.254,2.796 -2.731,2.687 -1.418,-0.324 -7.168,11.93 -6.476,13.797 0.695,1.875 -0.231,4.008 -2.043,4.703 -1.622,0.621 -4.364,-0.805 -4.364,-2.273 0,-0.672 -3.164,-2.336 -7.961,-4.188 -5.527,-2.129 -7.781,-3.367 -7.367,-4.035 0.442,-0.715 2.543,-0.242 8.051,1.809 9.672,3.593 10.566,3.359 14.117,-3.692 2.926,-5.812 3.227,-6.707 1.988,-5.941 -0.421,0.262 -1.636,-0.887 -2.695,-2.555 l -1.93,-3.027 1.7,-2.996 c 0.933,-1.645 1.968,-2.996 2.296,-3 0.332,0 0.602,1.617 0.602,3.593 z m -6.644,22.512 c -0.747,0.746 0.156,1.891 1.492,1.891 0.632,0 1.152,-0.539 1.152,-1.199 0,-1.207 -1.687,-1.645 -2.644,-0.692 z M 99.355,84.048 c 2.204,4.257 1.18,7.882 -2.808,9.945 -1.285,0.664 -2.535,1.207 -2.777,1.207 -0.239,0 -0.438,-3.402 -0.438,-7.559 l 0,-7.558 2.422,0.844 c 1.336,0.464 2.957,1.871 3.601,3.121 z m -50.824,3.953 c 0,4.609 -0.308,7.199 -0.863,7.199 -0.473,0 -1.91,-1.051 -3.199,-2.34 -1.676,-1.676 -2.336,-3.113 -2.336,-5.09 0,-3.218 2.613,-6.968 4.855,-6.968 1.41,0 1.543,0.621 1.543,7.199 z M 85.5,96.837 c 2.699,0.746 2.984,1.109 3.48,4.398 0.555,3.703 -0.492,9.383 -2.418,13.102 -2.781,5.383 -9.484,9.613 -15.273,9.644 -4.172,0.024 -11,-3.359 -13.562,-6.719 -3.957,-5.187 -5.844,-15.808 -3.395,-19.101 2,-2.684 23.008,-3.574 31.168,-1.324 z m -19.375,3.109 c -3.57,1.086 -7.125,3.234 -7.969,4.809 -4.035,7.543 5.977,14.621 17.145,12.121 11.496,-2.571 12.687,-13.239 1.84,-16.457 C 72.75,99.114 69.344,98.97 66.125,99.946 z m 2.27,9.59 c 0.335,2.25 -1.18,4.062 -3.403,4.062 -3.75,0 -5.031,-4.546 -1.898,-6.742 1.5,-1.051 2.008,-1.074 3.402,-0.152 0.899,0.594 1.754,1.867 1.899,2.832 z m -4.387,-0.301 c -0.606,1.574 0.109,2.293 1.676,1.695 0.703,-0.269 1.019,-0.992 0.75,-1.699 -0.61,-1.582 -1.821,-1.578 -2.426,0.004 z m 17.195,-0.078 c 0.344,1.738 -2.074,4.441 -3.976,4.441 -1.872,0 -4.09,-3.359 -3.403,-5.152 1.242,-3.23 6.699,-2.707 7.379,0.711 z m -5.047,-0.398 c -0.703,1.136 0.196,2.441 1.68,2.441 0.703,0 1.105,-0.563 0.953,-1.332 -0.312,-1.609 -1.906,-2.281 -2.633,-1.109 z M 51.73,106.735 c 0,0.625 0.219,1.703 0.489,2.399 0.347,0.91 0.004,1.265 -1.227,1.265 -1.867,0 -2.898,-1.707 -2.172,-3.597 0.586,-1.524 2.91,-1.579 2.91,-0.067 z m 41.805,-0.137 c 0.613,1.829 -0.371,3.801 -1.898,3.801 -1.043,0 -1.504,-0.57 -1.504,-1.867 0,-1.023 0.238,-2.105 0.531,-2.398 0.875,-0.875 2.508,-0.606 2.871,0.464 z M 74.5,129.399 c -0.633,2.09 -1.156,3.891 -1.16,4 -0.004,0.11 -1.031,0.199 -2.281,0.199 -1.946,0 -2.407,-0.445 -3.2,-3.089 -1.429,-4.774 -1.336,-4.911 3.434,-4.911 l 4.363,0 -1.156,3.801 z"
         style="fill:#000000;fill-opacity:1;fill-rule:nonzero;stroke:none"
         id="path3016"
         inkscape:connector-curvature="0" /><path
         d="m 243.383,23.764 c 2.422,-0.465 2.515,-1.402 -1.008,10.027 -2,6.493 -2.504,7.399 -4.098,7.399 -2.70796,2.402771 0.49677,14.31151 0.582,22.705 l 0,14.875 c 0,4.507778 -0.31997,5.213278 0.179,8.321633 0.43,0.687 15.656,-3.033633 17.023,-4.271633 0.879,-0.793 2.383,-1.684 3.336,-1.973 0.957,-0.289 2.894,-2.328 4.308,-4.531 2.141,-3.332 2.586,-4.832 2.661,-8.965 l 0.093,-4.961 3.778,-1.996 c 3.539,-1.867 3.859,-1.91 5.121,-0.645 1.258,1.254 1.258,1.485 0.023,3.363 -0.726,1.114 -1.32,2.477 -1.32,3.036 0,0.558 0.91,-0.325 2.023,-1.965 1.805,-2.656 2.196,-2.871 3.633,-1.985 1.067,0.657 1.469,1.536 1.188,2.594 -0.235,0.879 -0.43,2.762 -0.434,4.184 -0.012,2.285 -0.453,2.804 -3.812,4.457 -2.09,1.031 -4.34,1.75 -5,1.601 -1.661,-0.375 -5.903,6.551 -6.399,10.453 -0.558,4.375 -3.414,6.504 -7.039,5.239 -5.6992,-1.298387 -17.20134,2.649309 -19.88643,6.164253 C 238.1248,97.510026 238.141,98.79 237.258,98.79 c -1.293,0 -1.598,0.535 -1.598,2.801 -0.742,5.14 0.77,2.097 -2.289,12.875 -1.637,3.593 -4.805,7.214 -7.648,8.746 -7.145,5.234 -16.551,2.531 -16.965,1.179 -1.578,0 -8.832,-7.031 -9.891,-9.582 -3.453,-6.89 -2.121,-12.496 -1.902,-14.218 0.387,-1.454 0.152,-1.801 -1.211,-1.801 -0.934,0 -1.695,-0.27 -1.699,-0.598 -2.2301,-1.788796 0.8356,-3.882232 -1.9557,-5.030405 L 183.93,96.864 c -3.835,1.398 -7.113,3.223 -8.769,4.879 -2.934,2.93 -4.668,3.262 -7.324,1.402 -1.356,-0.949 -1.778,-2.043 -1.778,-4.601 0,-4.305 -3.992,-12.957 -6.246,-13.547 -0.894,-0.235 -2.375,-1.891 -3.289,-3.684 l -1.664,-3.258 2.195,-3.632 c 2.852,-4.727 5.004,-4.911 5.004,-0.434 0,1.762 0.36,3.203 0.801,3.203 0.438,0 0.801,-1.441 0.801,-3.203 0,-2.82 0.219,-3.199 1.871,-3.199 1.414,0 2.387,0.941 3.965,3.844 l 2.09,3.843 -1.938,3.157 c -1.066,1.734 -1.949,3.8 -1.965,4.589 -0.043,2.391 3,7.536 4.723,7.985 0.891,0.234 4.766,-0.742 8.617,-2.168 10.56076,-5.483543 4.06619,-5.010205 13.035,-8.623014 l 0,-25.427986 c 0.66312,-8.82325 1,-15.459 1,-15.459 l 1.8,-1.254 -2.437,-0.043 c -2.399,-0.043 -2.477,-0.176 -4.906,-8.453 -1.707,-5.813 -2.196,-8.578 -1.59,-8.957 17.82842,-2.993309 38.70344,1.48239 55.457,-0.059 z m -7.129,16.141 c 2.289,-7.785 3.344,-10.078 3.961,-14.489 L 225.26716,25.19 c -4.88774,-0.180085 -35.46578,-3.21592 -35.43239,0.940367 0.297,1.211 1.06323,5.899633 1.96223,8.883633 l 1.633,5.422 21.828,-0.445 m -17.399,56.814 c 9.586,-2.425 23.039,-2.789 32.2,-0.871 3.3,0.692 6.269,1.254 6.601,1.254 0.328,0 0.598,-10.426 0.598,-23.168 l -3.2,-31.172 -16.41,0 c -10.789,0 -18.548,0.207 -19.2,0.457 -3.11447,17.347498 -2.43408,12.605253 -2.788,30.114 0.10464,10.540013 -0.28533,18.039788 0,22.347 0,1.344 0.348,1.508 2.199,1.039 m 72.6,-34.896 c -1.894,1.106 -2.453,2.043 -2.656,4.446 -0.137,1.675 0.109,3.41 0.551,3.851 0.98,0.981 -6.777,12.875 -7.93,12.16 -0.418,-0.254 -1.57,0.379 -2.562,1.411 -1.27,1.316 2.29,0.818 -3.202,2.118 -3.61306,0.852618 -12.48914,3.325667 -15.34733,3.375529 -0.89834,2.168909 -0.63478,5.015074 -0.63478,5.257318 0,1.434 -1.56141,-0.807594 15.4088,-5.609859 5.69073,-2.492022 3.24807,2.968836 7.88831,-0.238988 1.375,-0.965 1.73,-1.809 1.414,-3.387 -0.594,-2.969 6.145,-13.176 8.258,-12.504 0.793,0.25 2.742,-0.164 4.328,-0.918 2.687,-1.281 2.883,-1.625 2.883,-5.015 l 0,-3.637 -2.028,2.988 c -1.984,2.922 -2.07,2.957 -4.015,1.68 l -1.988,-1.301 1.98,-2.598 c 2.801,-3.671 1.84,-4.523 -2.348,-2.078 z m -9.527,23.582 c 0.68,1.766 -0.223,2.668 -1.445,1.446 -0.723,-0.723 -0.727,-1.168 -0.012,-1.879 0.711,-0.715 1.059,-0.61 1.457,0.433 z m -95.673,-9.502 c 0,3.469 -0.09,3.602 -2.399,3.602 -2.328,0 -2.402,-0.118 -2.426,-3.801 l -0.023,-3.801 -1.914,3.117 -1.914,3.114 1.863,2.886 c 1.024,1.586 2.254,2.797 2.731,2.688 1.418,-0.324 7.171,11.929 6.476,13.797 -0.695,1.875 0.231,4.007 2.043,4.703 1.621,0.621 4.363,-0.809 4.363,-2.274 0,-0.672 3.164,-2.336 7.961,-4.187 5.528,-2.133 11.50448,-4.835405 11.09048,-5.503405 -0.12351,-0.199788 1.95426,-3.384815 0.24067,-4.248146 -5.00412,1.786385 -8.04522,6.045533 -12.01415,7.520551 -9.672,3.598 -10.563,3.364 -14.117,-3.687 -2.926,-5.813 -3.227,-6.707 -1.989,-5.942 0.422,0.262 1.637,-0.886 2.696,-2.554 l 1.929,-3.028 -1.699,-2.996 c -0.934,-1.644 -1.969,-2.996 -2.297,-3 -0.332,-0.004 -0.601,1.614 -0.601,3.594 z m 6.644,22.512 c 0.746,0.746 -0.156,1.89 -1.492,1.89 -0.633,0 -1.152,-0.543 -1.152,-1.199 0,-1.207 1.691,-1.644 2.644,-0.691 z m 29.988,-1.274 c -2.7,0.746 -2.985,1.11 -3.477,4.399 -0.559,3.703 0.488,9.383 2.414,13.101 2.781,5.383 9.484,9.614 15.274,9.645 4.171,0.023 11.003,-3.36 13.566,-6.719 3.953,-5.187 5.84,-15.808 3.391,-19.101 -2,-2.684 -23.008,-3.579 -31.168,-1.325 m 17.105,12.7 c -0.336,2.25 1.184,4.062 3.402,4.062 3.75,0 5.032,-4.547 1.899,-6.742 -1.5,-1.051 -2.008,-1.074 -3.399,-0.152 -0.902,0.593 -1.757,1.867 -1.902,2.832 z m 4.387,-0.301 c 0.605,1.57 -0.11,2.293 -1.676,1.695 -0.703,-0.269 -1.019,-0.992 -0.75,-1.699 0.609,-1.582 1.82,-1.578 2.426,0.004 z m -17.195,-0.082 c -0.344,1.742 2.078,4.445 3.976,4.445 1.875,0 4.09,-3.359 3.402,-5.152 -1.242,-3.235 -6.699,-2.707 -7.378,0.707 z m 5.046,-0.395 c 0.704,1.137 -0.195,2.442 -1.679,2.442 -0.703,0 -1.106,-0.563 -0.953,-1.336 0.312,-1.606 1.906,-2.278 2.632,-1.106 z"
         style="fill:#000000;fill-opacity:1;fill-rule:nonzero;stroke:none"
         id="path3018"
         inkscape:connector-curvature="0"
         sodipodi:nodetypes="ccccscccccccccscccccscccsccccccscccccsccccsssscccccccccccccccccccccccsscscccccccccccscccccscccccccsccssccccccccsccccccccccsssssccccccccsccccccccscccscc" /><path
         id="path3042"
         style="fill:#000000;fill-opacity:1;fill-rule:nonzero;stroke:none"
         d="m 94.287654,97.010823 5.12314,4.032347 c 3.208586,2.52528 17.637606,11.88538 18.695686,13.97547 1.872,3.70222 4.21861,5.4798 7.32182,4.54158 1.58366,-0.48017 2.32416,-1.38331 3.12328,-3.81855 1.34226,-4.0904 8.82935,-14.10313 11.15999,-13.96349 0.9221,0.0605 2.84209,-1.05653 4.27337,-2.473927 l 2.59306,-2.57802 -0.95285,-4.13628 c -1.23505,-5.38028 -3.22366,-6.22544 -4.61924,-1.97256 -0.54937,1.67417 -1.34007,2.93235 -1.76004,2.79454 -0.41522,-0.13625 -0.31052,-1.61955 0.23885,-3.29372 0.87925,-2.67942 0.78934,-3.10781 -0.78031,-3.62289 -1.34352,-0.44087 -2.56172,0.1508 -4.96587,2.41614 l -3.18434,3.00073 0.85643,3.60262 c 0.47192,1.98404 0.67149,4.22076 0.43594,4.973857 -0.70433,2.28427 -6.18153,9.08549 -9.97461,8.77462 -3.79307,-0.31087 -22.810942,-16.093031 -22.810942,-16.093031 z m 43.055146,-5.49054 c -1.0816,3.29607 -1.03755,3.4505 1.1554,4.17011 2.2129,0.72616 2.31969,0.63806 3.49018,-2.85512 l 1.20791,-3.60404 0.84643,3.55934 0.84799,3.55458 -2.67027,2.16222 c -1.46745,1.18767 -3.0134,1.953847 -3.43264,1.701557 -1.2463,-0.749967 -11.52807,12.14088 -11.45267,14.13057 0.0757,1.99823 -1.46914,3.73618 -3.40751,3.83157 -1.73477,0.0843 -3.89547,-2.12552 -3.43776,-3.52034 0.20952,-0.6385 -14.96239,-10.73632 -18.94283,-13.99165 -4.587676,-3.746137 -5.281346,-5.497477 -4.679706,-6.003097 0.6429,-0.54155 1.4297,0.43526 6.023656,4.10133 8.0696,6.429517 16.7667,15.772947 23.33879,11.170967 4.59226,-4.60998 10.06511,-11.154137 8.64904,-10.812627 -0.4817,0.11767 -1.27789,-1.35287 -1.76403,-3.26791 l -0.89,-3.47786 2.54938,-2.31661 c 1.39938,-1.2721 2.80402,-2.23305 3.11691,-2.13459 0.31545,0.10352 0.0678,1.7241 -0.54827,3.6016 z m -14.32955,22.358747 c -0.94235,0.47591 -0.44137,1.84537 0.82804,2.26193 0.60049,0.19705 1.26262,-0.15295 1.46841,-0.78005 0.37633,-1.14684 -1.09001,-2.08899 -2.29645,-1.48188 z"
         inkscape:connector-curvature="0"
         sodipodi:nodetypes="ccccsccccsssscccczccssccccccccscccccccccscssc" /><path
         sodipodi:nodetypes="ccccsccccsssscccczcccsccccccccscccssccccsccscc"
         inkscape:connector-curvature="0"
         d="m 48.538272,95.846839 -3.79329,5.302581 c -2.37575,3.32082 -24.60491,32.64121 -25.03724,34.94362 -0.76368,4.0777 -2.69628,5.83557 -5.93804,5.80125 -1.65474,-0.0188 -2.618911,-0.67862 -4.0653606,-2.79445 -2.41312,-3.52982 -4.12283,-9.15096 -8.023157,-10.54241 -0.86851995,0.31559 -3.02406,-0.22084 -4.79421,-1.18217 l -3.20982,-1.75134 -0.24012,-4.23782 c -0.31654,-5.51113 1.35695,-6.87799 3.88463,-3.18402 0.99503,1.45416 2.10563005,2.44148 2.47041005,2.19188 0.36065,-0.24679 -0.1541,-1.64184 -1.14913005,-3.09599 -1.5925,-2.3273 -1.6258,-2.76375 -0.26243,-3.69667 1.16696005,-0.79851 2.50192005,-0.57056 5.443027,0.93329 l 3.89562,1.99212 0.18368,3.69846 c 0.1009,2.0369 0.53388,4.24037 0.97036,4.89773 1.3141996,1.99671 1.8805596,7.24871 5.4359306,5.89098 3.55536,-1.35772 29.40459,-38.419026 29.40459,-38.419026 z M 1.0911844,118.04612 c 1.959007,2.86291 1.959827,3.0235 0.0551,4.32687 -1.92208995,1.31522 -2.04922995,1.26045 -4.14863,-1.7669 l -2.16629,-3.12336 0.18119,3.65411 0.17837,3.64998 3.16784,1.33052 c 1.74073005,0.73064 3.43914,1.03463 3.77125,0.6753 0.987287,-1.06817 7.867617,8.68952 8.3508466,10.62111 0.48532,1.93988 1.355421,2.40447 3.243311,1.95477 1.6893,-0.40349 4.24556,-2.35596 3.41655,-3.56747 -0.37949,-0.55459 22.53274,-30.18652 25.44577,-34.42389 3.35905,-4.87823 3.53606,-6.753607 2.81716,-7.071103 -0.76855,-0.340475 -1.25127,0.81719 -4.63871,5.620288 -3.577351,5.064065 -12.803876,17.280975 -19.37863,25.451035 -4.366387,5.42585 -6.625197,9.18411 -8.68448,7.45187 -1.709383,-1.43791 -6.2057306,-6.6818 -6.3423606,-11.8085 l -0.1166,-3.58804 -3.09488,-1.51253 c -1.698937,-0.83072 -3.31604695,-1.36119 -3.58899695,-1.17927 -0.27399,0.18749 0.41636,1.67444 1.53220995,3.30521 z m 13.4110076,17.71859 c 1.03777,0.19382 0.93914,1.6487 -0.16345,2.40317 -0.52157,0.3569 -1.2551,0.20573 -1.62782,-0.33896 -0.68162,-0.99612 0.46329,-2.31027 1.79127,-2.06421 z"
         style="fill:#000000;fill-opacity:1;fill-rule:nonzero;stroke:none"
         id="path3046" /><g
         id="g3648"
         transform="matrix(0.15135133,0,0,0.15135133,76.587247,156.15662)"
         style="stroke:#000000;stroke-width:1.32142878;stroke-opacity:1"><polyline
           transform="matrix(0.31250724,0,0,-0.31250724,10.546387,35.448808)"
           id="polyline3580"
           points="221.44,2.734 231.86,9.569 220.251,31.803   212.096,39.698 131.486,162.591 121.066,155.756 201.68,32.86 205.671,22.23 221.44,2.734 "
           clip-rule="evenodd"
           style="fill:#d7d7d7;fill-rule:evenodd;stroke:#000000;stroke-width:4.22847414;stroke-opacity:1" /><polyline
           transform="matrix(0.31250724,0,0,-0.31250724,10.546387,35.448808)"
           id="polyline3582"
           points="221.868,0.135 232.287,6.97 232.262,6.956 232.437,7.091 232.6,7.269 232.75,7.493 232.885,7.753 232.996,8.049   233.087,8.373 233.159,8.718 233.205,9.081 233.227,9.451 233.223,9.825 233.191,10.191 233.134,10.547 233.059,10.89   232.957,11.203 232.832,11.487 232.693,11.733 232.541,11.943 232.806,11.541 221.202,33.778 220.671,34.405 220.85,34.266   212.816,42.041 132.311,164.767 131.795,165.254 131.61,165.314 131.425,165.321 131.059,165.189 120.643,158.358 120.664,158.373   120.493,158.238 120.33,158.06 120.18,157.832 120.045,157.572 119.931,157.276 119.838,156.952 119.767,156.607 119.724,156.248   119.7,155.874 119.707,155.5 119.739,155.13 119.792,154.777 119.867,154.439 119.97,154.126 120.094,153.841 120.233,153.592   120.387,153.385 120.554,153.226 120.241,153.584 200.701,30.916 204.578,20.593 205.074,19.771 205.25,19.632 204.956,19.906   220.724,0.409 221.22,0.036 221.405,0 221.589,0.018 221.868,0.135 232.287,6.97 231.433,12.164 221.619,5.728 206.61,24.288   202.773,34.501 202.334,35.259 202.509,35.038 123.961,154.781 131.226,159.544 211.267,37.523 211.501,37.239 219.464,29.528   229.269,10.747 221.013,5.332 221.868,0.135 "
           style="stroke:#000000;stroke-width:4.22847414;stroke-opacity:1" /><polyline
           transform="matrix(0.31250724,0,0,-0.31250724,10.546387,35.448808)"
           id="polyline3586"
           points="117.19,171.177 119.233,172.679 119.329,172.754 121.173,174.431 121.277,174.534 122.921,176.371   123.029,176.502 124.465,178.479 124.58,178.652 125.808,180.75 125.922,180.974 126.936,183.177 127.054,183.465 127.851,185.75   127.669,185.331 127.958,186.11 128.535,188.467 128.403,188.04 128.617,188.901 128.968,191.301 128.919,191.022 128.98,191.375   129.019,191.792 129.143,194.227 129.151,194.322 129.151,194.696 129.147,194.743 129.04,197.188 128.98,197.779 128.912,198.128   128.997,197.69 128.652,200.132 128.432,201.04 128.574,200.577 127.994,202.991 127.609,203.955 127.883,203.368 127.064,205.746   126.947,206.045 125.883,208.358 125.761,208.59 124.449,210.829 124.388,210.925 49.957,324.398 49.904,324.478 48.373,326.574   48.266,326.706 46.565,328.61 46.464,328.706 44.615,330.404 44.521,330.479 42.535,331.974 42.457,332.028 40.35,333.309   40.271,333.355 38.071,334.427 38,334.455 35.714,335.312 35.65,335.335 33.305,335.969 33.237,335.982 30.848,336.392   30.784,336.399 28.367,336.576 28.303,336.58 25.883,336.527 25.812,336.523 23.397,336.231 23.331,336.221 20.945,335.687   20.878,335.666 18.535,334.894 18.46,334.861 16.189,333.835 16.104,333.793 13.915,332.515 13.826,332.458 11.783,330.956   11.686,330.878 9.843,329.201 9.739,329.102 8.098,327.268 7.992,327.133 6.553,325.156 6.439,324.983 5.215,322.886 5.094,322.658   4.079,320.458 3.962,320.17 3.168,317.884 3.346,318.305 3.061,317.525 2.485,315.169 2.616,315.596 2.399,314.738 2.046,312.332   2.097,312.612 2.04,312.261 1.997,311.844 1.875,309.408 1.872,309.309 1.872,308.938 1.872,308.896 1.975,306.447 2.036,305.856   2.104,305.507 2.021,305.949 2.363,303.507 2.584,302.595 2.445,303.058 3.021,300.642 3.406,299.681 3.132,300.271 3.951,297.89   4.069,297.594 5.137,295.277 5.254,295.05 6.571,292.807 6.628,292.713 81.059,179.24 81.116,179.158 82.646,177.062   82.753,176.929 84.451,175.028 84.55,174.933 86.401,173.235 86.495,173.157 88.48,171.665 88.562,171.608 90.667,170.323   90.744,170.28 92.945,169.212 93.019,169.18 95.301,168.326 95.369,168.304 97.714,167.67 97.779,167.656 100.17,167.248   100.235,167.236 102.648,167.059 102.716,167.059 105.136,167.108 105.204,167.116 107.618,167.404 107.685,167.418   110.071,167.949 110.141,167.97 112.48,168.746 112.555,168.774 114.83,169.8 114.911,169.842 117.101,171.124 116.335,176.371   114.185,175.114 111.997,174.124 109.733,173.373 107.415,172.861 105.072,172.576 102.719,172.526 100.367,172.701 98.045,173.1   95.771,173.715 93.556,174.541 91.428,175.577 89.403,176.812 87.499,178.24 85.739,179.855 84.138,181.643 82.689,183.629   8.315,297.015 7.091,299.1 6.147,301.154 5.442,303.194 4.962,305.201 4.688,307.17 4.606,309.105 4.706,311.035 4.991,312.976   5.468,314.927 6.155,316.888 7.052,318.835 8.163,320.732 9.486,322.555 11.024,324.271 12.772,325.859 14.723,327.294   16.83,328.521 19.027,329.507 21.283,330.259 23.601,330.778 25.943,331.06 28.3,331.109 30.649,330.938 32.97,330.539   35.249,329.924 37.462,329.098 39.591,328.058 41.613,326.822 43.518,325.392 45.275,323.78 46.878,321.992 48.327,320.007   122.704,206.618 123.925,204.539 124.868,202.481 125.573,200.442 126.054,198.43 126.329,196.465 126.414,194.529 126.314,192.603   126.026,190.663 125.548,188.706 124.862,186.744 123.963,184.804 122.858,182.902 121.529,181.081 119.991,179.365   118.248,177.777 116.25,176.313 117.19,171.177 "
           style="stroke:#000000;stroke-width:4.22847414;stroke-opacity:1" /><polyline
           transform="matrix(0.31250724,0,0,-0.31250724,10.546387,35.448808)"
           id="polyline3588"
           points="117.93,153.827 134.597,164.763 128.45,174.132 111.779,163.196 "
           clip-rule="evenodd"
           style="fill-rule:evenodd;stroke:#000000;stroke-width:4.22847414;stroke-opacity:1" /><polyline
           transform="matrix(0.31250724,0,0,-0.31250724,10.546387,35.448808)"
           id="polyline3590"
           points="118.372,151.107 135.039,162.042 135.013,162.028 135.188,162.16 135.351,162.342 135.501,162.562   135.637,162.826 135.75,163.122 135.842,163.446 135.91,163.791 135.957,164.154 135.981,164.524 135.974,164.897 135.942,165.265   135.889,165.62 135.808,165.962 135.71,166.275 135.586,166.557 135.448,166.803 135.292,167.012 135.124,167.176 135.44,166.813   129.297,176.182 128.773,176.673 128.592,176.734 128.407,176.741 128.04,176.609 111.373,165.674 111.395,165.688 111.224,165.553   111.06,165.375 110.91,165.15 110.776,164.891 110.662,164.595 110.569,164.271 110.498,163.922 110.455,163.562 110.43,163.189   110.437,162.819 110.469,162.449 110.522,162.092 110.597,161.754 110.701,161.441 110.825,161.157 110.964,160.911   111.117,160.705 111.284,160.541 110.971,160.9 117.116,151.531 117.635,151.04 117.82,150.982 118.005,150.972 118.372,151.107   135.039,162.042 134.188,167.236 118.205,156.75 114.691,162.096 128.208,170.963 131.713,165.613 117.518,156.301 118.372,151.107   "
           style="stroke:#000000;stroke-width:4.22847414;stroke-opacity:1" /><polyline
           transform="matrix(0.31250724,0,0,-0.31250724,10.546387,35.448808)"
           id="polyline3592"
           points="106.589,159.654 132.636,176.741 128.574,187.478   98.36,167.66 106.589,159.654 "
           clip-rule="evenodd"
           style="fill:#aaaaaa;fill-rule:evenodd;stroke:#000000;stroke-width:4.22847414;stroke-opacity:1" /><polyline
           transform="matrix(0.31250724,0,0,-0.31250724,10.546387,35.448808)"
           id="polyline3594"
           points="107.016,157.059 133.059,174.146 133.039,174.128 133.212,174.26 133.372,174.441 133.522,174.666   133.658,174.929 133.772,175.225 133.868,175.548 133.935,175.894 133.977,176.253 134.001,176.627 134,176.997 133.963,177.367   133.91,177.724 133.832,178.062 133.732,178.375 133.611,178.656 133.469,178.905 133.725,178.389 129.664,189.125 129.166,189.944   128.991,190.08 128.809,190.172 128.624,190.208 128.438,190.197 128.147,190.072 97.931,170.259 97.958,170.273 97.783,170.137   97.619,169.959 97.469,169.732 97.337,169.476 97.22,169.18 97.13,168.856 97.059,168.507 97.013,168.148 96.996,167.778   96.999,167.404 97.027,167.037 97.082,166.678 97.163,166.339 97.266,166.026 97.384,165.742 97.523,165.496 97.679,165.286   97.846,165.125 98.029,165.008 97.76,165.204 105.991,157.198 106.45,156.935 106.634,156.924 107.016,157.059 133.059,174.146   132.208,179.339 106.689,162.598 101.994,167.168 128.068,184.27 130.389,178.147 106.162,162.253 107.016,157.059 "
           style="stroke:#000000;stroke-width:4.22847414;stroke-opacity:1" /><path
           id="path3596"
           d="m 40.822713,-21.294694 0,0 c 0.737205,-0.485011 -0.628764,-3.89259 -3.028195,-7.550175 L 20.080983,-55.848307 c -2.398493,-3.657897 -4.980428,-6.26952 -5.717945,-5.785134 -0.738767,0.484386 0.628452,3.89259 3.026945,7.550175 l 17.713535,27.003438 c 2.398181,3.65821 4.981366,6.268895 5.719195,5.785134"
           clip-rule="evenodd"
           inkscape:connector-curvature="0"
           style="fill:#5f6062;fill-rule:evenodd;stroke:#000000;stroke-width:1.32142878;stroke-opacity:1" /><polyline
           transform="matrix(0.31250724,0,0,-0.31250724,10.546387,35.448808)"
           id="polyline3598"
           points="97.533,179.176 97.9,179.575 97.783,179.457 97.946,179.628 98.366,180.407 98.576,181.009 98.394,180.589   98.523,180.866 98.63,181.169 98.711,181.504 98.807,182.145 98.872,182.942 98.868,182.902 98.886,183.276 98.878,183.647   98.85,184.014 98.872,183.811 98.792,184.793 98.675,185.541 98.583,185.868 98.722,185.32 98.504,186.474 98.195,187.435   98.431,186.797 98.082,188.104 98.021,188.317 97.541,189.767 97.49,189.916 96.888,191.5 96.846,191.61 96.126,193.312   96.092,193.397 95.259,195.205 95.226,195.276 94.29,197.177 94.261,197.238 93.218,199.221 93.18,199.295 90.813,203.457   90.762,203.539 88.043,207.874 88.021,207.91 31.344,294.318 31.314,294.354 28.424,298.573 28.378,298.637 25.505,302.467   25.466,302.518 24.063,304.259 24.039,304.289 22.665,305.909 22.636,305.941 21.312,307.423 21.276,307.455 20.002,308.793   19.97,308.829 18.756,310.011 18.709,310.046 17.571,311.064 17.521,311.106 16.463,311.946 16.396,311.997 15.428,312.651   15.338,312.706 14.474,313.167 14.353,313.222 13.594,313.48 13.413,313.517 12.772,313.563 12.491,313.524 11.979,313.35   11.911,313.324 11.555,313.054 11.191,312.655 11.312,312.772 11.146,312.603 10.729,311.826 10.519,311.221 10.696,311.645   10.572,311.367 10.462,311.061 10.38,310.729 10.284,310.089 10.223,309.288 10.227,309.331 10.202,308.957 10.213,308.583   10.241,308.217 10.223,308.423 10.298,307.44 10.419,306.689 10.508,306.366 10.373,306.91 10.586,305.761 10.896,304.799   10.658,305.436 11.01,304.127 11.074,303.916 11.548,302.464 11.604,302.314 12.202,300.733 12.245,300.619 12.964,298.923   13.003,298.833 13.83,297.028 13.865,296.957 14.805,295.056 14.833,294.995 15.873,293.014 15.912,292.938 18.283,288.776   18.333,288.695 21.048,284.359 21.074,284.323 77.751,197.911 77.773,197.878 80.667,193.657 80.716,193.593 83.589,189.763   83.625,189.716 85.028,187.976 85.056,187.94 86.426,186.324 86.455,186.288 87.783,184.811 87.812,184.775 89.089,183.44   89.125,183.401 90.339,182.223 90.378,182.184 91.52,181.169 91.571,181.123 92.631,180.283 92.699,180.236 93.664,179.578   93.753,179.528 94.617,179.066 94.743,179.012 95.5,178.752 95.678,178.716 96.32,178.667 96.6,178.706 97.113,178.884   96.651,184.27 96.277,184.142 95.875,184.173 95.261,184.38 94.497,184.79 93.611,185.395 92.607,186.188 91.514,187.16   90.339,188.303 89.1,189.602 87.801,191.051 86.455,192.636 85.088,194.336 82.254,198.11 79.397,202.279 22.739,288.652   20.059,292.931 17.738,297.007 16.734,298.923 15.83,300.76 15.033,302.493 14.36,304.091 13.808,305.547 13.392,306.813   13.114,307.854 12.979,308.579 12.957,308.854 12.933,308.601 12.783,308.166 12.668,308.038 12.815,308.089 13.22,308.061   13.826,307.854 14.591,307.443 15.485,306.839 16.485,306.045 17.578,305.073 18.752,303.93 19.995,302.627 21.291,301.183   22.632,299.598 24.006,297.893 26.837,294.119 29.695,289.955 86.353,203.578 89.029,199.303 91.353,195.224 92.357,193.312   93.261,191.475 94.058,189.741 94.731,188.143 95.284,186.687 95.7,185.42 95.978,184.376 96.113,183.654 96.137,183.376   96.155,183.633 96.308,184.067 96.226,183.974 97.533,179.176 "
           style="stroke:#000000;stroke-width:4.22847414;stroke-opacity:1" /><path
           id="path3600"
           d="m 47.007857,-25.352913 0,0 c 0.738454,-0.483761 -0.628765,-3.89259 -3.027258,-7.550175 L 26.268314,-59.906526 c -2.399431,-3.657897 -4.981366,-6.268583 -5.720133,-5.784822 l 0,0 c -0.738454,0.484074 0.628452,3.892278 3.027883,7.549863 l 17.713535,27.00375 c 2.399743,3.657898 4.980428,6.268583 5.718258,5.784822"
           clip-rule="evenodd"
           inkscape:connector-curvature="0"
           style="fill:#5f6062;fill-rule:evenodd;stroke:#000000;stroke-width:1.32142878;stroke-opacity:1" /><polyline
           transform="matrix(0.31250724,0,0,-0.31250724,10.546387,35.448808)"
           id="polyline3602"
           points="117.333,192.162 117.695,192.561 117.575,192.443 117.746,192.614 118.158,193.39 118.372,193.995 118.19,193.571   118.315,193.849 118.425,194.155 118.511,194.486 118.603,195.131 118.667,195.928 118.664,195.889 118.684,196.259   118.678,196.633 118.646,197 118.667,196.796 118.588,197.775 118.468,198.526 118.379,198.851 118.517,198.309 118.3,199.456   117.991,200.417 118.229,199.779 117.877,201.09 117.813,201.299 117.339,202.752 117.283,202.901 116.688,204.482 116.642,204.596   115.926,206.294 115.884,206.383 115.057,208.191 115.026,208.259 114.082,210.163 114.053,210.22 113.015,212.203 112.974,212.281   110.605,216.438 110.554,216.524 107.839,220.856 107.813,220.893 51.136,307.305 51.114,307.337 48.22,311.556 48.17,311.627   45.301,315.453 45.261,315.5 43.859,317.243 43.831,317.276 42.46,318.896 42.435,318.928 41.104,320.409 41.075,320.444   39.798,321.779 39.762,321.813 38.548,322.996 38.509,323.032 37.367,324.047 37.317,324.093 36.256,324.933 36.191,324.983   35.223,325.638 35.138,325.687 34.269,326.15 34.145,326.207 33.387,326.463 33.208,326.503 32.568,326.549 32.287,326.514   31.778,326.335 31.707,326.307 31.354,326.044 30.987,325.642 31.105,325.76 30.941,325.591 30.521,324.809 30.311,324.21   30.492,324.626 30.364,324.35 30.261,324.047 30.175,323.712 30.08,323.071 30.016,322.274 30.019,322.313 30.001,321.943   30.009,321.569 30.037,321.202 30.016,321.405 30.094,320.426 30.211,319.676 30.304,319.351 30.165,319.896 30.382,318.745   30.691,317.781 30.457,318.418 30.805,317.111 30.866,316.898 31.347,315.449 31.396,315.301 31.998,313.716 32.041,313.606   32.76,311.907 32.795,311.818 33.629,310.011 33.661,309.942 34.597,308.038 34.625,307.981 35.668,305.998 35.708,305.921   38.075,301.763 38.125,301.677 40.844,297.345 40.866,297.306 97.547,210.896 97.572,210.861 100.462,206.646 100.509,206.579   103.381,202.748 103.421,202.702 104.824,200.958 104.852,200.926 106.222,199.306 106.25,199.274 107.579,197.793 107.61,197.761   108.885,196.422 108.917,196.387 110.131,195.205 110.178,195.17 111.316,194.152 111.37,194.109 112.427,193.269 112.491,193.219   113.459,192.564 113.549,192.511 114.417,192.048 114.535,191.995 115.292,191.734 115.478,191.699 116.116,191.652 116.4,191.688   116.909,191.867 116.443,197.256 116.073,197.127 115.667,197.156 115.061,197.362 114.295,197.772 113.403,198.377   112.402,199.171 111.31,200.146 110.135,201.285 108.892,202.588 107.596,204.033 106.254,205.621 104.88,207.323 102.05,211.096   99.191,215.261 42.535,301.638 39.858,305.913 37.534,309.993 36.53,311.907 35.625,313.744 34.832,315.476 34.155,317.077   33.607,318.529 33.187,319.796 32.91,320.836 32.774,321.562 32.749,321.84 32.731,321.584 32.578,321.149 32.461,321.024   32.611,321.074 33.016,321.046 33.625,320.836 34.391,320.43 35.281,319.824 36.281,319.027 37.374,318.056 38.548,316.912   39.787,315.613 41.086,314.165 42.432,312.58 43.802,310.879 46.632,307.105 49.491,302.938 106.147,216.563 108.829,212.288   111.149,208.209 112.153,206.294 113.061,204.457 113.854,202.727 114.527,201.125 115.08,199.673 115.496,198.402 115.777,197.362   115.909,196.64 115.933,196.362 115.955,196.615 116.104,197.049 116.018,196.96 117.333,192.162 "
           style="stroke:#000000;stroke-width:4.22847414;stroke-opacity:1" /><path
           id="path3604"
           d="m 22.470413,-68.997674 -0.0044,-0.11219 -0.01125,-0.109065 -0.01656,-0.10594 -0.02563,-0.09969 -0.03,-0.0925 -0.03781,-0.08469 -0.04125,-0.07438 -0.04656,-0.06125 -0.05,-0.04969 -0.05344,-0.03562 -0.05469,-0.02125 -0.05563,-0.0075 -0.05688,0.0075 -0.05438,0.02125 -0.0525,0.03562 -0.05,0.04969 -0.04656,0.06125 -0.04219,0.07438 -0.03688,0.08469 -0.03125,0.0925 -0.02437,0.09969 -0.01781,0.10594 -0.01125,0.109065 -0.0031,0.11219 0.0031,0.111565 0.01125,0.108752 0.01781,0.10594 0.02437,0.10094 0.03125,0.09344 0.03688,0.0825 0.04219,0.07438 0.04656,0.06219 0.05,0.04875 0.0525,0.03688 0.05438,0.02125 0.05688,0.0075 0.05563,-0.0075 0.05469,-0.02125 0.05344,-0.03688 0.05,-0.04875 0.04656,-0.06219 0.04125,-0.07438 0.03781,-0.0825 0.03,-0.09344 0.02563,-0.10094 0.01656,-0.10594 0.01125,-0.108752 0.0044,-0.111565 m -11.069631,7.262355 -0.0034,-0.11219 -0.01125,-0.109065 -0.01781,-0.10594 -0.02438,-0.09969 -0.0325,-0.09375 -0.03563,-0.08469 -0.04188,-0.07313 -0.04656,-0.06219 -0.05031,-0.04875 -0.05219,-0.03688 -0.05563,-0.02125 -0.05563,-0.0066 -0.05563,0.0066 -0.05438,0.02125 -0.05344,0.03688 -0.05,0.04875 -0.04563,0.06219 -0.04219,0.07313 -0.03781,0.08469 -0.03125,0.09375 -0.02469,0.09969 -0.01656,0.10594 -0.0125,0.109065 -0.0031,0.11219 0.0031,0.110941 0.0125,0.109377 0.01656,0.10594 0.02469,0.10094 0.03125,0.09125 0.03781,0.08469 0.04219,0.07438 0.04563,0.06094 0.05,0.05 0.05344,0.03563 0.05438,0.02125 0.05563,0.0087 0.05563,-0.0087 0.05563,-0.02125 0.05219,-0.03563 0.05031,-0.05 0.04656,-0.06094 0.04219,-0.07438 0.03563,-0.08469 0.0325,-0.09125 0.02438,-0.10094 0.01781,-0.10594 0.01125,-0.109377 0.0031,-0.110941 z m -0.293757,0.810644 11.068694,-7.260793 -0.265944,-1.623788 -11.069944,7.260794 0.267194,1.623787 z"
           inkscape:connector-curvature="0"
           style="stroke:#000000;stroke-width:1.32142878;stroke-opacity:1" /><polyline
           transform="matrix(0.31250724,0,0,-0.31250724,10.546387,35.448808)"
           id="polyline3606"
           points="207.126,29.197 211.292,31.931 129.354,156.856   125.185,154.123 "
           clip-rule="evenodd"
           style="fill:#ffffff;fill-rule:evenodd;stroke:#000000;stroke-width:4.22847414;stroke-opacity:1" /></g><path
         style="fill:none;stroke:#000000;stroke-width:1.20000005;stroke-linecap:butt;stroke-linejoin:miter;stroke-opacity:1"
         d="m 70.063881,134.88346 c 0.438376,7.33797 -1.783063,13.37296 -1.783063,13.37296 -1.111934,0.85934 -1.547258,2.03208 -0.462291,3.36717 1.084967,1.33509 2.860361,0.89877 3.383638,0.0131 4.982237,0.21024 6.17978,0.082 9.56009,0.23827 0,0 -0.839088,2.72703 0.839088,1.67818 1.144024,-0.71501 1.7562,-3.28223 1.76608,-5.24281 0.0048,-0.91542 -1.937464,1.65776 -2.605168,1.25714 -2.729299,-0.80005 -5.922044,-0.8049 -8.848018,-0.76634 -0.07967,0.0881 -0.417213,-0.82673 -0.801496,-0.91184 0.641073,-1.25956 0.676304,-3.67744 1.110907,-6.03325 0.425069,-2.30413 0.30186,-4.64011 0.357499,-6.97262 z"
         id="path3663"
         inkscape:connector-curvature="0"
         sodipodi:nodetypes="cszccsscccscc" /><path
         sodipodi:type="arc"
         style="fill:#000000;fill-opacity:1;stroke:#000000;stroke-width:1.5;stroke-miterlimit:4;stroke-opacity:1;stroke-dasharray:none;stroke-dashoffset:0"
         id="path4433"
         sodipodi:cx="86.396927"
         sodipodi:cy="-17.729946"
         sodipodi:rx="0.2651706"
         sodipodi:ry="0.16388445"
         d="m 86.662097,-17.729946 c 0,0.09051 -0.11872,0.163884 -0.26517,0.163884 -0.14645,0 -0.265171,-0.07337 -0.265171,-0.163884 0,-0.09051 0.118721,-0.163885 0.265171,-0.163885 0.14645,0 0.26517,0.07337 0.26517,0.163885 z"
         transform="matrix(0.8,0,0,-0.8,0.57687325,135.77688)" /></g></g></svg>