<?xml version="1.0" encoding="UTF-8" standalone="no"?>
<!-- Created with Inkscape (http://www.inkscape.org/) -->

<svg
   xmlns:dc="http://purl.org/dc/elements/1.1/"
   xmlns:cc="http://creativecommons.org/ns#"
   xmlns:rdf="http://www.w3.org/1999/02/22-rdf-syntax-ns#"
   xmlns:svg="http://www.w3.org/2000/svg"
   xmlns="http://www.w3.org/2000/svg"
   xmlns:sodipodi="http://sodipodi.sourceforge.net/DTD/sodipodi-0.dtd"
   xmlns:inkscape="http://www.inkscape.org/namespaces/inkscape"
   id="svg2"
   version="1.1"
   inkscape:version="0.48.2 r9819"
   width="482.24976"
   height="412.25012"
   xml:space="preserve"
   sodipodi:docname="CPUvsGPU Kopie.svg"><metadata
     id="metadata8"><rdf:RDF><cc:Work
         rdf:about=""><dc:format>image/svg+xml</dc:format><dc:type
           rdf:resource="http://purl.org/dc/dcmitype/StillImage" /><dc:title /></cc:Work></rdf:RDF></metadata><defs
     id="defs6" /><sodipodi:namedview
     pagecolor="#ffffff"
     bordercolor="#666666"
     borderopacity="1"
     objecttolerance="10"
     gridtolerance="10"
     guidetolerance="10"
     inkscape:pageopacity="0"
     inkscape:pageshadow="2"
     inkscape:window-width="1440"
     inkscape:window-height="799"
     id="namedview4"
     showgrid="false"
     fit-margin-top="0"
     fit-margin-left="0"
     fit-margin-right="0"
     fit-margin-bottom="0"
     inkscape:zoom="0.91451648"
     inkscape:cx="-219.30037"
     inkscape:cy="222.55269"
     inkscape:window-x="0"
     inkscape:window-y="0"
     inkscape:window-maximized="1"
     inkscape:current-layer="g10" /><g
     id="g10"
     inkscape:groupmode="layer"
     inkscape:label="aherten_PANDA_1-2013"
     transform="matrix(1.25,0,0,-1.25,-746.99996,695.40665)"><g
   id="g12" /><g
   id="g224"
   transform="matrix(1,0,0,-1,0,768)" /><g
   id="g242"
   transform="matrix(1,0,0,-1,0,768)" /><g
   id="g314"
   transform="matrix(1,0,0,-1,0,768)" /><g
   id="g320"
   transform="matrix(1,0,0,-1,0,768)" />

<path
   inkscape:connector-curvature="0"
   id="path3458"
   style="fill:#f2f2f4;fill-opacity:1;fill-rule:nonzero;stroke:#e6e6e6;stroke-width:0.80000001"
   d="m 597.99997,555.92532 384.9998,0 0,-329.0001 -384.9998,0 0,329.0001 z" /><path
   inkscape:connector-curvature="0"
   id="path3460"
   style="fill:#199dd2;fill-opacity:1;fill-rule:nonzero;stroke:#1392c3;stroke-width:1;stroke-miterlimit:4;stroke-dasharray:none"
   d="m 610.74997,298.98612 359,0 0,-57 -359,0 0,57 z" /><path
   inkscape:connector-curvature="0"
   id="path3558"
   style="fill:#6c7cd2;fill-opacity:1;fill-rule:nonzero;stroke:none"
   d="m 610.99997,335.92532 26,0 0,-11 -26,0 0,11 z" /><g
   transform="matrix(1,0,0,-1,-1.7932871e-7,766.92532)"
   id="g3560"
   style="stroke-width:1;stroke-miterlimit:4;stroke-dasharray:none"><path
     inkscape:connector-curvature="0"
     id="path3562"
     style="fill:none;stroke:#6475be;stroke-width:1;stroke-linecap:butt;stroke-linejoin:miter;stroke-miterlimit:4;stroke-opacity:1;stroke-dasharray:none"
     d="m 611,431 26,0 0,11 -26,0 0,-11 z" /></g><path
   inkscape:connector-curvature="0"
   id="path3564"
   style="fill:#199ed2;fill-opacity:1;fill-rule:nonzero;stroke:none"
   d="m 610.99997,321.92532 26,0 0,-11 -26,0 0,11 z" /><g
   transform="matrix(1,0,0,-1,-1.7932871e-7,766.92532)"
   id="g3566"
   style="stroke-width:1;stroke-miterlimit:4;stroke-dasharray:none"><path
     inkscape:connector-curvature="0"
     id="path3568"
     style="fill:none;stroke:#2093c1;stroke-width:1;stroke-linecap:butt;stroke-linejoin:miter;stroke-miterlimit:4;stroke-opacity:1;stroke-dasharray:none"
     d="m 611,445 26,0 0,11 -26,0 0,-11 z" /></g><path
   inkscape:connector-curvature="0"
   id="path3666"
   style="fill:#6c7cd2;fill-opacity:1;fill-rule:nonzero;stroke:none"
   d="m 610.99997,365.92532 26,0 0,-11 -26,0 0,11 z" /><g
   transform="matrix(1,0,0,-1,-1.7932871e-7,766.92532)"
   id="g3668"
   style="stroke-width:1;stroke-miterlimit:4;stroke-dasharray:none"><path
     inkscape:connector-curvature="0"
     id="path3670"
     style="fill:none;stroke:#6475be;stroke-width:1;stroke-linecap:butt;stroke-linejoin:miter;stroke-miterlimit:4;stroke-opacity:1;stroke-dasharray:none"
     d="m 611,401 26,0 0,11 -26,0 0,-11 z" /></g><path
   inkscape:connector-curvature="0"
   id="path3672"
   style="fill:#199ed2;fill-opacity:1;fill-rule:nonzero;stroke:none"
   d="m 610.99997,351.92532 26,0 0,-11 -26,0 0,11 z" /><g
   transform="matrix(1,0,0,-1,-1.7932871e-7,766.92532)"
   id="g3674"
   style="stroke-width:1;stroke-miterlimit:4;stroke-dasharray:none"><path
     inkscape:connector-curvature="0"
     id="path3676"
     style="fill:none;stroke:#2093c1;stroke-width:1;stroke-linecap:butt;stroke-linejoin:miter;stroke-miterlimit:4;stroke-opacity:1;stroke-dasharray:none"
     d="m 611,415 26,0 0,11 -26,0 0,-11 z" /></g><path
   inkscape:connector-curvature="0"
   id="path3774"
   style="fill:#6c7cd2;fill-opacity:1;fill-rule:nonzero;stroke:none"
   d="m 610.99997,394.92532 26,0 0,-11 -26,0 0,11 z" /><g
   transform="matrix(1,0,0,-1,-1.7932871e-7,766.92532)"
   id="g3776"
   style="stroke-width:1;stroke-miterlimit:4;stroke-dasharray:none"><path
     inkscape:connector-curvature="0"
     id="path3778"
     style="fill:none;stroke:#6475be;stroke-width:1;stroke-linecap:butt;stroke-linejoin:miter;stroke-miterlimit:4;stroke-opacity:1;stroke-dasharray:none"
     d="m 611,372 26,0 0,11 -26,0 0,-11 z" /></g><path
   inkscape:connector-curvature="0"
   id="path3780"
   style="fill:#199ed2;fill-opacity:1;fill-rule:nonzero;stroke:none"
   d="m 610.99997,380.92532 26,0 0,-11 -26,0 0,11 z" /><g
   transform="matrix(1,0,0,-1,-1.7932871e-7,766.92532)"
   id="g3782"
   style="stroke-width:1;stroke-miterlimit:4;stroke-dasharray:none"><path
     inkscape:connector-curvature="0"
     id="path3784"
     style="fill:none;stroke:#2093c1;stroke-width:1;stroke-linecap:butt;stroke-linejoin:miter;stroke-miterlimit:4;stroke-opacity:1;stroke-dasharray:none"
     d="m 611,386 26,0 0,11 -26,0 0,-11 z" /></g><path
   inkscape:connector-curvature="0"
   id="path3882"
   style="fill:#6c7cd2;fill-opacity:1;fill-rule:nonzero;stroke:none"
   d="m 610.99997,423.92532 26,0 0,-11 -26,0 0,11 z" /><g
   transform="matrix(1,0,0,-1,-1.7932871e-7,766.92532)"
   id="g3884"
   style="stroke-width:1;stroke-miterlimit:4;stroke-dasharray:none"><path
     inkscape:connector-curvature="0"
     id="path3886"
     style="fill:none;stroke:#6475be;stroke-width:1;stroke-linecap:butt;stroke-linejoin:miter;stroke-miterlimit:4;stroke-opacity:1;stroke-dasharray:none"
     d="m 611,343 26,0 0,11 -26,0 0,-11 z" /></g><path
   inkscape:connector-curvature="0"
   id="path3888"
   style="fill:#199ed2;fill-opacity:1;fill-rule:nonzero;stroke:none"
   d="m 610.99997,409.92532 26,0 0,-11 -26,0 0,11 z" /><g
   transform="matrix(1,0,0,-1,-1.7932871e-7,766.92532)"
   id="g3890"
   style="stroke-width:1;stroke-miterlimit:4;stroke-dasharray:none"><path
     inkscape:connector-curvature="0"
     id="path3892"
     style="fill:none;stroke:#2093c1;stroke-width:1;stroke-linecap:butt;stroke-linejoin:miter;stroke-miterlimit:4;stroke-opacity:1;stroke-dasharray:none"
     d="m 611,357 26,0 0,11 -26,0 0,-11 z" /></g><path
   inkscape:connector-curvature="0"
   id="path3990"
   style="fill:#6c7cd2;fill-opacity:1;fill-rule:nonzero;stroke:none"
   d="m 610.99997,452.92532 26,0 0,-11 -26,0 0,11 z" /><g
   transform="matrix(1,0,0,-1,-1.7932871e-7,766.92532)"
   id="g3992"
   style="stroke-width:1;stroke-miterlimit:4;stroke-dasharray:none"><path
     inkscape:connector-curvature="0"
     id="path3994"
     style="fill:none;stroke:#6475be;stroke-width:1;stroke-linecap:butt;stroke-linejoin:miter;stroke-miterlimit:4;stroke-opacity:1;stroke-dasharray:none"
     d="m 611,314 26,0 0,11 -26,0 0,-11 z" /></g><path
   inkscape:connector-curvature="0"
   id="path3996"
   style="fill:#199ed2;fill-opacity:1;fill-rule:nonzero;stroke:none"
   d="m 610.99997,438.92532 26,0 0,-11 -26,0 0,11 z" /><g
   transform="matrix(1,0,0,-1,-1.7932871e-7,766.92532)"
   id="g3998"
   style="stroke-width:1;stroke-miterlimit:4;stroke-dasharray:none"><path
     inkscape:connector-curvature="0"
     id="path4000"
     style="fill:none;stroke:#2093c1;stroke-width:1;stroke-linecap:butt;stroke-linejoin:miter;stroke-miterlimit:4;stroke-opacity:1;stroke-dasharray:none"
     d="m 611,328 26,0 0,11 -26,0 0,-11 z" /></g><path
   inkscape:connector-curvature="0"
   id="path4098"
   style="fill:#6c7cd2;fill-opacity:1;fill-rule:nonzero;stroke:none"
   d="m 610.99997,481.92532 26,0 0,-11 -26,0 0,11 z" /><g
   transform="matrix(1,0,0,-1,-1.7932871e-7,766.92532)"
   id="g4100"
   style="stroke-width:1;stroke-miterlimit:4;stroke-dasharray:none"><path
     inkscape:connector-curvature="0"
     id="path4102"
     style="fill:none;stroke:#6475be;stroke-width:1;stroke-linecap:butt;stroke-linejoin:miter;stroke-miterlimit:4;stroke-opacity:1;stroke-dasharray:none"
     d="m 611,285 26,0 0,11 -26,0 0,-11 z" /></g><path
   inkscape:connector-curvature="0"
   id="path4104"
   style="fill:#199ed2;fill-opacity:1;fill-rule:nonzero;stroke:none"
   d="m 610.99997,467.92532 26,0 0,-11 -26,0 0,11 z" /><g
   transform="matrix(1,0,0,-1,-1.7932871e-7,766.92532)"
   id="g4106"
   style="stroke-width:1;stroke-miterlimit:4;stroke-dasharray:none"><path
     inkscape:connector-curvature="0"
     id="path4108"
     style="fill:none;stroke:#2093c1;stroke-width:1;stroke-linecap:butt;stroke-linejoin:miter;stroke-miterlimit:4;stroke-opacity:1;stroke-dasharray:none"
     d="m 611,299 26,0 0,11 -26,0 0,-11 z" /></g><path
   inkscape:connector-curvature="0"
   id="path4206"
   style="fill:#6c7cd2;fill-opacity:1;fill-rule:nonzero;stroke:none"
   d="m 610.99997,510.92532 26,0 0,-11 -26,0 0,11 z" /><g
   transform="matrix(1,0,0,-1,-1.7932871e-7,766.92532)"
   id="g4208"
   style="stroke-width:1;stroke-miterlimit:4;stroke-dasharray:none"><path
     inkscape:connector-curvature="0"
     id="path4210"
     style="fill:none;stroke:#6475be;stroke-width:1;stroke-linecap:butt;stroke-linejoin:miter;stroke-miterlimit:4;stroke-opacity:1;stroke-dasharray:none"
     d="m 611,256 26,0 0,11 -26,0 0,-11 z" /></g><path
   inkscape:connector-curvature="0"
   id="path4212"
   style="fill:#199ed2;fill-opacity:1;fill-rule:nonzero;stroke:none"
   d="m 610.99997,496.92532 26,0 0,-11 -26,0 0,11 z" /><g
   transform="matrix(1,0,0,-1,-1.7932871e-7,766.92532)"
   id="g4214"
   style="stroke-width:1;stroke-miterlimit:4;stroke-dasharray:none"><path
     inkscape:connector-curvature="0"
     id="path4216"
     style="fill:none;stroke:#2093c1;stroke-width:1;stroke-linecap:butt;stroke-linejoin:miter;stroke-miterlimit:4;stroke-opacity:1;stroke-dasharray:none"
     d="m 611,270 26,0 0,11 -26,0 0,-11 z" /></g><path
   inkscape:connector-curvature="0"
   id="path4314"
   style="fill:#6c7cd2;fill-opacity:1;fill-rule:nonzero;stroke:none"
   d="m 610.99997,539.92532 26,0 0,-11 -26,0 0,11 z" /><g
   transform="matrix(1,0,0,-1,-1.7932871e-7,766.92532)"
   id="g4316"
   style="stroke-width:1;stroke-miterlimit:4;stroke-dasharray:none"><path
     inkscape:connector-curvature="0"
     id="path4318"
     style="fill:none;stroke:#6475be;stroke-width:1;stroke-linecap:butt;stroke-linejoin:miter;stroke-miterlimit:4;stroke-opacity:1;stroke-dasharray:none"
     d="m 611,227 26,0 0,11 -26,0 0,-11 z" /></g><path
   inkscape:connector-curvature="0"
   id="path4320"
   style="fill:#199ed2;fill-opacity:1;fill-rule:nonzero;stroke:none"
   d="m 610.99997,525.92532 26,0 0,-11 -26,0 0,11 z" /><g
   transform="matrix(1,0,0,-1,-1.7932871e-7,766.92532)"
   id="g4322"
   style="stroke-width:1;stroke-miterlimit:4;stroke-dasharray:none"><path
     inkscape:connector-curvature="0"
     id="path4324"
     style="fill:none;stroke:#2093c1;stroke-width:1;stroke-linecap:butt;stroke-linejoin:miter;stroke-miterlimit:4;stroke-opacity:1;stroke-dasharray:none"
     d="m 611,241 26,0 0,11 -26,0 0,-11 z" /></g><g
   id="g4326"
   transform="matrix(1,0,0,-1,611.53397,295.41012)"><text
   transform="translate(147.048,33)"
   id="text4328"><tspan
     style="font-size:24px;font-variant:normal;font-weight:normal;writing-mode:lr-tb;fill:#ffffff;fill-opacity:1;fill-rule:nonzero;stroke:none;font-family:Myriad Pro;-inkscape-font-specification:MyriadPro-Regular"
     x="0 15.984 29.016001 43.608002"
     y="0"
     sodipodi:role="line"
     id="tspan4330">DRAM</tspan></text>


</g><path
   inkscape:connector-curvature="0"
   id="path4346"
   style="fill:#7ccfa5;fill-opacity:1;fill-rule:nonzero;stroke:#76c19d"
   d="m 950.64997,335.52532 19,0 0,-25 -19,0 0,25 z" /><path
   d="m 930.48997,335.52532 19,0 0,-25 -19,0 0,25 z"
   style="fill:#7ccfa5;fill-opacity:1;fill-rule:nonzero;stroke:#76c19d"
   id="path4348"
   inkscape:connector-curvature="0" /><path
   inkscape:connector-curvature="0"
   id="path4350"
   style="fill:#7ccfa5;fill-opacity:1;fill-rule:nonzero;stroke:#76c19d"
   d="m 910.32997,335.52532 19,0 0,-25 -19,0 0,25 z" /><path
   d="m 890.16997,335.52532 19,0 0,-25 -19,0 0,25 z"
   style="fill:#7ccfa5;fill-opacity:1;fill-rule:nonzero;stroke:#76c19d"
   id="path4352"
   inkscape:connector-curvature="0" /><path
   inkscape:connector-curvature="0"
   id="path4354"
   style="fill:#7ccfa5;fill-opacity:1;fill-rule:nonzero;stroke:#76c19d"
   d="m 870.00997,335.52532 19,0 0,-25 -19,0 0,25 z" /><path
   d="m 849.84997,335.52532 19,0 0,-25 -19,0 0,25 z"
   style="fill:#7ccfa5;fill-opacity:1;fill-rule:nonzero;stroke:#76c19d"
   id="path4356"
   inkscape:connector-curvature="0" /><path
   inkscape:connector-curvature="0"
   id="path4358"
   style="fill:#7ccfa5;fill-opacity:1;fill-rule:nonzero;stroke:#76c19d"
   d="m 829.68997,335.52532 19,0 0,-25 -19,0 0,25 z" /><path
   d="m 809.52997,335.52532 19,0 0,-25 -19,0 0,25 z"
   style="fill:#7ccfa5;fill-opacity:1;fill-rule:nonzero;stroke:#76c19d"
   id="path4360"
   inkscape:connector-curvature="0" /><path
   inkscape:connector-curvature="0"
   id="path4362"
   style="fill:#7ccfa5;fill-opacity:1;fill-rule:nonzero;stroke:#76c19d"
   d="m 789.36997,335.52532 19,0 0,-25 -19,0 0,25 z" /><path
   d="m 769.20997,335.52532 19,0 0,-25 -19,0 0,25 z"
   style="fill:#7ccfa5;fill-opacity:1;fill-rule:nonzero;stroke:#76c19d"
   id="path4364"
   inkscape:connector-curvature="0" /><path
   inkscape:connector-curvature="0"
   id="path4366"
   style="fill:#7ccfa5;fill-opacity:1;fill-rule:nonzero;stroke:#76c19d"
   d="m 749.04997,335.52532 19,0 0,-25 -19,0 0,25 z" /><path
   d="m 728.88997,335.52532 19,0 0,-25 -19,0 0,25 z"
   style="fill:#7ccfa5;fill-opacity:1;fill-rule:nonzero;stroke:#76c19d"
   id="path4368"
   inkscape:connector-curvature="0" /><path
   inkscape:connector-curvature="0"
   id="path4370"
   style="fill:#7ccfa5;fill-opacity:1;fill-rule:nonzero;stroke:#76c19d"
   d="m 708.72997,335.52532 19,0 0,-25 -19,0 0,25 z" /><path
   d="m 688.56997,335.52532 19,0 0,-25 -19,0 0,25 z"
   style="fill:#7ccfa5;fill-opacity:1;fill-rule:nonzero;stroke:#76c19d"
   id="path4372"
   inkscape:connector-curvature="0" /><path
   inkscape:connector-curvature="0"
   id="path4374"
   style="fill:#7ccfa5;fill-opacity:1;fill-rule:nonzero;stroke:#76c19d"
   d="m 668.40997,335.52532 19,0 0,-25 -19,0 0,25 z" /><path
   d="m 648.24997,335.52532 19,0 0,-25 -19,0 0,25 z"
   style="fill:#7ccfa5;fill-opacity:1;fill-rule:nonzero;stroke:#76c19d"
   id="path4376"
   inkscape:connector-curvature="0" /><path
   inkscape:connector-curvature="0"
   id="path4378"
   style="fill:#7ccfa5;fill-opacity:1;fill-rule:nonzero;stroke:#76c19d"
   d="m 950.64997,364.72532 19,0 0,-25 -19,0 0,25 z" /><path
   d="m 930.48997,364.72532 19,0 0,-25 -19,0 0,25 z"
   style="fill:#7ccfa5;fill-opacity:1;fill-rule:nonzero;stroke:#76c19d"
   id="path4380"
   inkscape:connector-curvature="0" /><path
   inkscape:connector-curvature="0"
   id="path4382"
   style="fill:#7ccfa5;fill-opacity:1;fill-rule:nonzero;stroke:#76c19d"
   d="m 910.32997,364.72532 19,0 0,-25 -19,0 0,25 z" /><path
   d="m 890.16997,364.72532 19,0 0,-25 -19,0 0,25 z"
   style="fill:#7ccfa5;fill-opacity:1;fill-rule:nonzero;stroke:#76c19d"
   id="path4384"
   inkscape:connector-curvature="0" /><path
   inkscape:connector-curvature="0"
   id="path4386"
   style="fill:#7ccfa5;fill-opacity:1;fill-rule:nonzero;stroke:#76c19d"
   d="m 870.00997,364.72532 19,0 0,-25 -19,0 0,25 z" /><path
   d="m 849.84997,364.72532 19,0 0,-25 -19,0 0,25 z"
   style="fill:#7ccfa5;fill-opacity:1;fill-rule:nonzero;stroke:#76c19d"
   id="path4388"
   inkscape:connector-curvature="0" /><path
   inkscape:connector-curvature="0"
   id="path4390"
   style="fill:#7ccfa5;fill-opacity:1;fill-rule:nonzero;stroke:#76c19d"
   d="m 829.68997,364.72532 19,0 0,-25 -19,0 0,25 z" /><path
   d="m 809.52997,364.72532 19,0 0,-25 -19,0 0,25 z"
   style="fill:#7ccfa5;fill-opacity:1;fill-rule:nonzero;stroke:#76c19d"
   id="path4392"
   inkscape:connector-curvature="0" /><path
   inkscape:connector-curvature="0"
   id="path4394"
   style="fill:#7ccfa5;fill-opacity:1;fill-rule:nonzero;stroke:#76c19d"
   d="m 789.36997,364.72532 19,0 0,-25 -19,0 0,25 z" /><path
   d="m 769.20997,364.72532 19,0 0,-25 -19,0 0,25 z"
   style="fill:#7ccfa5;fill-opacity:1;fill-rule:nonzero;stroke:#76c19d"
   id="path4396"
   inkscape:connector-curvature="0" /><path
   inkscape:connector-curvature="0"
   id="path4398"
   style="fill:#7ccfa5;fill-opacity:1;fill-rule:nonzero;stroke:#76c19d"
   d="m 749.04997,364.72532 19,0 0,-25 -19,0 0,25 z" /><path
   d="m 728.88997,364.72532 19,0 0,-25 -19,0 0,25 z"
   style="fill:#7ccfa5;fill-opacity:1;fill-rule:nonzero;stroke:#76c19d"
   id="path4400"
   inkscape:connector-curvature="0" /><path
   inkscape:connector-curvature="0"
   id="path4402"
   style="fill:#7ccfa5;fill-opacity:1;fill-rule:nonzero;stroke:#76c19d"
   d="m 708.72997,364.72532 19,0 0,-25 -19,0 0,25 z" /><path
   d="m 688.56997,364.72532 19,0 0,-25 -19,0 0,25 z"
   style="fill:#7ccfa5;fill-opacity:1;fill-rule:nonzero;stroke:#76c19d"
   id="path4404"
   inkscape:connector-curvature="0" /><path
   inkscape:connector-curvature="0"
   id="path4406"
   style="fill:#7ccfa5;fill-opacity:1;fill-rule:nonzero;stroke:#76c19d"
   d="m 668.40997,364.72532 19,0 0,-25 -19,0 0,25 z" /><path
   d="m 648.24997,364.72532 19,0 0,-25 -19,0 0,25 z"
   style="fill:#7ccfa5;fill-opacity:1;fill-rule:nonzero;stroke:#76c19d"
   id="path4408"
   inkscape:connector-curvature="0" /><path
   inkscape:connector-curvature="0"
   id="path4410"
   style="fill:#7ccfa5;fill-opacity:1;fill-rule:nonzero;stroke:#76c19d"
   d="m 950.64997,393.92532 19,0 0,-25 -19,0 0,25 z" /><path
   d="m 930.48997,393.92532 19,0 0,-25 -19,0 0,25 z"
   style="fill:#7ccfa5;fill-opacity:1;fill-rule:nonzero;stroke:#76c19d"
   id="path4412"
   inkscape:connector-curvature="0" /><path
   inkscape:connector-curvature="0"
   id="path4414"
   style="fill:#7ccfa5;fill-opacity:1;fill-rule:nonzero;stroke:#76c19d"
   d="m 910.32997,393.92532 19,0 0,-25 -19,0 0,25 z" /><path
   d="m 890.16997,393.92532 19,0 0,-25 -19,0 0,25 z"
   style="fill:#7ccfa5;fill-opacity:1;fill-rule:nonzero;stroke:#76c19d"
   id="path4416"
   inkscape:connector-curvature="0" /><path
   inkscape:connector-curvature="0"
   id="path4418"
   style="fill:#7ccfa5;fill-opacity:1;fill-rule:nonzero;stroke:#76c19d"
   d="m 870.00997,393.92532 19,0 0,-25 -19,0 0,25 z" /><path
   d="m 849.84997,393.92532 19,0 0,-25 -19,0 0,25 z"
   style="fill:#7ccfa5;fill-opacity:1;fill-rule:nonzero;stroke:#76c19d"
   id="path4420"
   inkscape:connector-curvature="0" /><path
   inkscape:connector-curvature="0"
   id="path4422"
   style="fill:#7ccfa5;fill-opacity:1;fill-rule:nonzero;stroke:#76c19d"
   d="m 829.68997,393.92532 19,0 0,-25 -19,0 0,25 z" /><path
   d="m 809.52997,393.92532 19,0 0,-25 -19,0 0,25 z"
   style="fill:#7ccfa5;fill-opacity:1;fill-rule:nonzero;stroke:#76c19d"
   id="path4424"
   inkscape:connector-curvature="0" /><path
   inkscape:connector-curvature="0"
   id="path4426"
   style="fill:#7ccfa5;fill-opacity:1;fill-rule:nonzero;stroke:#76c19d"
   d="m 789.36997,393.92532 19,0 0,-25 -19,0 0,25 z" /><path
   d="m 769.20997,393.92532 19,0 0,-25 -19,0 0,25 z"
   style="fill:#7ccfa5;fill-opacity:1;fill-rule:nonzero;stroke:#76c19d"
   id="path4428"
   inkscape:connector-curvature="0" /><path
   inkscape:connector-curvature="0"
   id="path4430"
   style="fill:#7ccfa5;fill-opacity:1;fill-rule:nonzero;stroke:#76c19d"
   d="m 749.04997,393.92532 19,0 0,-25 -19,0 0,25 z" /><path
   d="m 728.88997,393.92532 19,0 0,-25 -19,0 0,25 z"
   style="fill:#7ccfa5;fill-opacity:1;fill-rule:nonzero;stroke:#76c19d"
   id="path4432"
   inkscape:connector-curvature="0" /><path
   inkscape:connector-curvature="0"
   id="path4434"
   style="fill:#7ccfa5;fill-opacity:1;fill-rule:nonzero;stroke:#76c19d"
   d="m 708.72997,393.92532 19,0 0,-25 -19,0 0,25 z" /><path
   d="m 688.56997,393.92532 19,0 0,-25 -19,0 0,25 z"
   style="fill:#7ccfa5;fill-opacity:1;fill-rule:nonzero;stroke:#76c19d"
   id="path4436"
   inkscape:connector-curvature="0" /><path
   inkscape:connector-curvature="0"
   id="path4438"
   style="fill:#7ccfa5;fill-opacity:1;fill-rule:nonzero;stroke:#76c19d"
   d="m 668.40997,393.92532 19,0 0,-25 -19,0 0,25 z" /><path
   d="m 648.24997,393.92532 19,0 0,-25 -19,0 0,25 z"
   style="fill:#7ccfa5;fill-opacity:1;fill-rule:nonzero;stroke:#76c19d"
   id="path4440"
   inkscape:connector-curvature="0" /><path
   inkscape:connector-curvature="0"
   id="path4442"
   style="fill:#7ccfa5;fill-opacity:1;fill-rule:nonzero;stroke:#76c19d"
   d="m 950.64997,423.12532 19,0 0,-25 -19,0 0,25 z" /><path
   d="m 930.48997,423.12532 19,0 0,-25 -19,0 0,25 z"
   style="fill:#7ccfa5;fill-opacity:1;fill-rule:nonzero;stroke:#76c19d"
   id="path4444"
   inkscape:connector-curvature="0" /><path
   inkscape:connector-curvature="0"
   id="path4446"
   style="fill:#7ccfa5;fill-opacity:1;fill-rule:nonzero;stroke:#76c19d"
   d="m 910.32997,423.12532 19,0 0,-25 -19,0 0,25 z" /><path
   d="m 890.16997,423.12532 19,0 0,-25 -19,0 0,25 z"
   style="fill:#7ccfa5;fill-opacity:1;fill-rule:nonzero;stroke:#76c19d"
   id="path4448"
   inkscape:connector-curvature="0" /><path
   inkscape:connector-curvature="0"
   id="path4450"
   style="fill:#7ccfa5;fill-opacity:1;fill-rule:nonzero;stroke:#76c19d"
   d="m 870.00997,423.12532 19,0 0,-25 -19,0 0,25 z" /><path
   d="m 849.84997,423.12532 19,0 0,-25 -19,0 0,25 z"
   style="fill:#7ccfa5;fill-opacity:1;fill-rule:nonzero;stroke:#76c19d"
   id="path4452"
   inkscape:connector-curvature="0" /><path
   inkscape:connector-curvature="0"
   id="path4454"
   style="fill:#7ccfa5;fill-opacity:1;fill-rule:nonzero;stroke:#76c19d"
   d="m 829.68997,423.12532 19,0 0,-25 -19,0 0,25 z" /><path
   d="m 809.52997,423.12532 19,0 0,-25 -19,0 0,25 z"
   style="fill:#7ccfa5;fill-opacity:1;fill-rule:nonzero;stroke:#76c19d"
   id="path4456"
   inkscape:connector-curvature="0" /><path
   inkscape:connector-curvature="0"
   id="path4458"
   style="fill:#7ccfa5;fill-opacity:1;fill-rule:nonzero;stroke:#76c19d"
   d="m 789.36997,423.12532 19,0 0,-25 -19,0 0,25 z" /><path
   d="m 769.20997,423.12532 19,0 0,-25 -19,0 0,25 z"
   style="fill:#7ccfa5;fill-opacity:1;fill-rule:nonzero;stroke:#76c19d"
   id="path4460"
   inkscape:connector-curvature="0" /><path
   inkscape:connector-curvature="0"
   id="path4462"
   style="fill:#7ccfa5;fill-opacity:1;fill-rule:nonzero;stroke:#76c19d"
   d="m 749.04997,423.12532 19,0 0,-25 -19,0 0,25 z" /><path
   d="m 728.88997,423.12532 19,0 0,-25 -19,0 0,25 z"
   style="fill:#7ccfa5;fill-opacity:1;fill-rule:nonzero;stroke:#76c19d"
   id="path4464"
   inkscape:connector-curvature="0" /><path
   inkscape:connector-curvature="0"
   id="path4466"
   style="fill:#7ccfa5;fill-opacity:1;fill-rule:nonzero;stroke:#76c19d"
   d="m 708.72997,423.12532 19,0 0,-25 -19,0 0,25 z" /><path
   d="m 688.56997,423.12532 19,0 0,-25 -19,0 0,25 z"
   style="fill:#7ccfa5;fill-opacity:1;fill-rule:nonzero;stroke:#76c19d"
   id="path4468"
   inkscape:connector-curvature="0" /><path
   inkscape:connector-curvature="0"
   id="path4470"
   style="fill:#7ccfa5;fill-opacity:1;fill-rule:nonzero;stroke:#76c19d"
   d="m 668.40997,423.12532 19,0 0,-25 -19,0 0,25 z" /><path
   d="m 648.24997,423.12532 19,0 0,-25 -19,0 0,25 z"
   style="fill:#7ccfa5;fill-opacity:1;fill-rule:nonzero;stroke:#76c19d"
   id="path4472"
   inkscape:connector-curvature="0" /><path
   inkscape:connector-curvature="0"
   id="path4474"
   style="fill:#7ccfa5;fill-opacity:1;fill-rule:nonzero;stroke:#76c19d"
   d="m 950.64997,452.32532 19,0 0,-25 -19,0 0,25 z" /><path
   d="m 930.48997,452.32532 19,0 0,-25 -19,0 0,25 z"
   style="fill:#7ccfa5;fill-opacity:1;fill-rule:nonzero;stroke:#76c19d"
   id="path4476"
   inkscape:connector-curvature="0" /><path
   inkscape:connector-curvature="0"
   id="path4478"
   style="fill:#7ccfa5;fill-opacity:1;fill-rule:nonzero;stroke:#76c19d"
   d="m 910.32997,452.32532 19,0 0,-25 -19,0 0,25 z" /><path
   d="m 890.16997,452.32532 19,0 0,-25 -19,0 0,25 z"
   style="fill:#7ccfa5;fill-opacity:1;fill-rule:nonzero;stroke:#76c19d"
   id="path4480"
   inkscape:connector-curvature="0" /><path
   inkscape:connector-curvature="0"
   id="path4482"
   style="fill:#7ccfa5;fill-opacity:1;fill-rule:nonzero;stroke:#76c19d"
   d="m 870.00997,452.32532 19,0 0,-25 -19,0 0,25 z" /><path
   d="m 849.84997,452.32532 19,0 0,-25 -19,0 0,25 z"
   style="fill:#7ccfa5;fill-opacity:1;fill-rule:nonzero;stroke:#76c19d"
   id="path4484"
   inkscape:connector-curvature="0" /><path
   inkscape:connector-curvature="0"
   id="path4486"
   style="fill:#7ccfa5;fill-opacity:1;fill-rule:nonzero;stroke:#76c19d"
   d="m 829.68997,452.32532 19,0 0,-25 -19,0 0,25 z" /><path
   d="m 809.52997,452.32532 19,0 0,-25 -19,0 0,25 z"
   style="fill:#7ccfa5;fill-opacity:1;fill-rule:nonzero;stroke:#76c19d"
   id="path4488"
   inkscape:connector-curvature="0" /><path
   inkscape:connector-curvature="0"
   id="path4490"
   style="fill:#7ccfa5;fill-opacity:1;fill-rule:nonzero;stroke:#76c19d"
   d="m 789.36997,452.32532 19,0 0,-25 -19,0 0,25 z" /><path
   d="m 769.20997,452.32532 19,0 0,-25 -19,0 0,25 z"
   style="fill:#7ccfa5;fill-opacity:1;fill-rule:nonzero;stroke:#76c19d"
   id="path4492"
   inkscape:connector-curvature="0" /><path
   inkscape:connector-curvature="0"
   id="path4494"
   style="fill:#7ccfa5;fill-opacity:1;fill-rule:nonzero;stroke:#76c19d"
   d="m 749.04997,452.32532 19,0 0,-25 -19,0 0,25 z" /><path
   d="m 728.88997,452.32532 19,0 0,-25 -19,0 0,25 z"
   style="fill:#7ccfa5;fill-opacity:1;fill-rule:nonzero;stroke:#76c19d"
   id="path4496"
   inkscape:connector-curvature="0" /><path
   inkscape:connector-curvature="0"
   id="path4498"
   style="fill:#7ccfa5;fill-opacity:1;fill-rule:nonzero;stroke:#76c19d"
   d="m 708.72997,452.32532 19,0 0,-25 -19,0 0,25 z" /><path
   d="m 688.56997,452.32532 19,0 0,-25 -19,0 0,25 z"
   style="fill:#7ccfa5;fill-opacity:1;fill-rule:nonzero;stroke:#76c19d"
   id="path4500"
   inkscape:connector-curvature="0" /><path
   inkscape:connector-curvature="0"
   id="path4502"
   style="fill:#7ccfa5;fill-opacity:1;fill-rule:nonzero;stroke:#76c19d"
   d="m 668.40997,452.32532 19,0 0,-25 -19,0 0,25 z" /><path
   d="m 648.24997,452.32532 19,0 0,-25 -19,0 0,25 z"
   style="fill:#7ccfa5;fill-opacity:1;fill-rule:nonzero;stroke:#76c19d"
   id="path4504"
   inkscape:connector-curvature="0" /><path
   inkscape:connector-curvature="0"
   id="path4506"
   style="fill:#7ccfa5;fill-opacity:1;fill-rule:nonzero;stroke:#76c19d"
   d="m 950.64997,481.52532 19,0 0,-25 -19,0 0,25 z" /><path
   d="m 930.48997,481.52532 19,0 0,-25 -19,0 0,25 z"
   style="fill:#7ccfa5;fill-opacity:1;fill-rule:nonzero;stroke:#76c19d"
   id="path4508"
   inkscape:connector-curvature="0" /><path
   inkscape:connector-curvature="0"
   id="path4510"
   style="fill:#7ccfa5;fill-opacity:1;fill-rule:nonzero;stroke:#76c19d"
   d="m 910.32997,481.52532 19,0 0,-25 -19,0 0,25 z" /><path
   d="m 890.16997,481.52532 19,0 0,-25 -19,0 0,25 z"
   style="fill:#7ccfa5;fill-opacity:1;fill-rule:nonzero;stroke:#76c19d"
   id="path4512"
   inkscape:connector-curvature="0" /><path
   inkscape:connector-curvature="0"
   id="path4514"
   style="fill:#7ccfa5;fill-opacity:1;fill-rule:nonzero;stroke:#76c19d"
   d="m 870.00997,481.52532 19,0 0,-25 -19,0 0,25 z" /><path
   d="m 849.84997,481.52532 19,0 0,-25 -19,0 0,25 z"
   style="fill:#7ccfa5;fill-opacity:1;fill-rule:nonzero;stroke:#76c19d"
   id="path4516"
   inkscape:connector-curvature="0" /><path
   inkscape:connector-curvature="0"
   id="path4518"
   style="fill:#7ccfa5;fill-opacity:1;fill-rule:nonzero;stroke:#76c19d"
   d="m 829.68997,481.52532 19,0 0,-25 -19,0 0,25 z" /><path
   d="m 809.52997,481.52532 19,0 0,-25 -19,0 0,25 z"
   style="fill:#7ccfa5;fill-opacity:1;fill-rule:nonzero;stroke:#76c19d"
   id="path4520"
   inkscape:connector-curvature="0" /><path
   inkscape:connector-curvature="0"
   id="path4522"
   style="fill:#7ccfa5;fill-opacity:1;fill-rule:nonzero;stroke:#76c19d"
   d="m 789.36997,481.52532 19,0 0,-25 -19,0 0,25 z" /><path
   d="m 769.20997,481.52532 19,0 0,-25 -19,0 0,25 z"
   style="fill:#7ccfa5;fill-opacity:1;fill-rule:nonzero;stroke:#76c19d"
   id="path4524"
   inkscape:connector-curvature="0" /><path
   inkscape:connector-curvature="0"
   id="path4526"
   style="fill:#7ccfa5;fill-opacity:1;fill-rule:nonzero;stroke:#76c19d"
   d="m 749.04997,481.52532 19,0 0,-25 -19,0 0,25 z" /><path
   d="m 728.88997,481.52532 19,0 0,-25 -19,0 0,25 z"
   style="fill:#7ccfa5;fill-opacity:1;fill-rule:nonzero;stroke:#76c19d"
   id="path4528"
   inkscape:connector-curvature="0" /><path
   inkscape:connector-curvature="0"
   id="path4530"
   style="fill:#7ccfa5;fill-opacity:1;fill-rule:nonzero;stroke:#76c19d"
   d="m 708.72997,481.52532 19,0 0,-25 -19,0 0,25 z" /><path
   d="m 688.56997,481.52532 19,0 0,-25 -19,0 0,25 z"
   style="fill:#7ccfa5;fill-opacity:1;fill-rule:nonzero;stroke:#76c19d"
   id="path4532"
   inkscape:connector-curvature="0" /><path
   inkscape:connector-curvature="0"
   id="path4534"
   style="fill:#7ccfa5;fill-opacity:1;fill-rule:nonzero;stroke:#76c19d"
   d="m 668.40997,481.52532 19,0 0,-25 -19,0 0,25 z" /><path
   d="m 648.24997,481.52532 19,0 0,-25 -19,0 0,25 z"
   style="fill:#7ccfa5;fill-opacity:1;fill-rule:nonzero;stroke:#76c19d"
   id="path4536"
   inkscape:connector-curvature="0" /><path
   inkscape:connector-curvature="0"
   id="path4538"
   style="fill:#7ccfa5;fill-opacity:1;fill-rule:nonzero;stroke:#76c19d"
   d="m 950.64997,510.72532 19,0 0,-25 -19,0 0,25 z" /><path
   d="m 930.48997,510.72532 19,0 0,-25 -19,0 0,25 z"
   style="fill:#7ccfa5;fill-opacity:1;fill-rule:nonzero;stroke:#76c19d"
   id="path4540"
   inkscape:connector-curvature="0" /><path
   inkscape:connector-curvature="0"
   id="path4542"
   style="fill:#7ccfa5;fill-opacity:1;fill-rule:nonzero;stroke:#76c19d"
   d="m 910.32997,510.72532 19,0 0,-25 -19,0 0,25 z" /><path
   d="m 890.16997,510.72532 19,0 0,-25 -19,0 0,25 z"
   style="fill:#7ccfa5;fill-opacity:1;fill-rule:nonzero;stroke:#76c19d"
   id="path4544"
   inkscape:connector-curvature="0" /><path
   inkscape:connector-curvature="0"
   id="path4546"
   style="fill:#7ccfa5;fill-opacity:1;fill-rule:nonzero;stroke:#76c19d"
   d="m 870.00997,510.72532 19,0 0,-25 -19,0 0,25 z" /><path
   d="m 849.84997,510.72532 19,0 0,-25 -19,0 0,25 z"
   style="fill:#7ccfa5;fill-opacity:1;fill-rule:nonzero;stroke:#76c19d"
   id="path4548"
   inkscape:connector-curvature="0" /><path
   inkscape:connector-curvature="0"
   id="path4550"
   style="fill:#7ccfa5;fill-opacity:1;fill-rule:nonzero;stroke:#76c19d"
   d="m 829.68997,510.72532 19,0 0,-25 -19,0 0,25 z" /><path
   d="m 809.52997,510.72532 19,0 0,-25 -19,0 0,25 z"
   style="fill:#7ccfa5;fill-opacity:1;fill-rule:nonzero;stroke:#76c19d"
   id="path4552"
   inkscape:connector-curvature="0" /><path
   inkscape:connector-curvature="0"
   id="path4554"
   style="fill:#7ccfa5;fill-opacity:1;fill-rule:nonzero;stroke:#76c19d"
   d="m 789.36997,510.72532 19,0 0,-25 -19,0 0,25 z" /><path
   d="m 769.20997,510.72532 19,0 0,-25 -19,0 0,25 z"
   style="fill:#7ccfa5;fill-opacity:1;fill-rule:nonzero;stroke:#76c19d"
   id="path4556"
   inkscape:connector-curvature="0" /><path
   inkscape:connector-curvature="0"
   id="path4558"
   style="fill:#7ccfa5;fill-opacity:1;fill-rule:nonzero;stroke:#76c19d"
   d="m 749.04997,510.72532 19,0 0,-25 -19,0 0,25 z" /><path
   d="m 728.88997,510.72532 19,0 0,-25 -19,0 0,25 z"
   style="fill:#7ccfa5;fill-opacity:1;fill-rule:nonzero;stroke:#76c19d"
   id="path4560"
   inkscape:connector-curvature="0" /><path
   inkscape:connector-curvature="0"
   id="path4562"
   style="fill:#7ccfa5;fill-opacity:1;fill-rule:nonzero;stroke:#76c19d"
   d="m 708.72997,510.72532 19,0 0,-25 -19,0 0,25 z" /><path
   d="m 688.56997,510.72532 19,0 0,-25 -19,0 0,25 z"
   style="fill:#7ccfa5;fill-opacity:1;fill-rule:nonzero;stroke:#76c19d"
   id="path4564"
   inkscape:connector-curvature="0" /><path
   inkscape:connector-curvature="0"
   id="path4566"
   style="fill:#7ccfa5;fill-opacity:1;fill-rule:nonzero;stroke:#76c19d"
   d="m 668.40997,510.72532 19,0 0,-25 -19,0 0,25 z" /><path
   d="m 648.24997,510.72532 19,0 0,-25 -19,0 0,25 z"
   style="fill:#7ccfa5;fill-opacity:1;fill-rule:nonzero;stroke:#76c19d"
   id="path4568"
   inkscape:connector-curvature="0" /><path
   inkscape:connector-curvature="0"
   id="path4570"
   style="fill:#7ccfa5;fill-opacity:1;fill-rule:nonzero;stroke:#76c19d"
   d="m 950.64997,539.92532 19,0 0,-25 -19,0 0,25 z" /><path
   d="m 930.48997,539.92532 19,0 0,-25 -19,0 0,25 z"
   style="fill:#7ccfa5;fill-opacity:1;fill-rule:nonzero;stroke:#76c19d"
   id="path4572"
   inkscape:connector-curvature="0" /><path
   inkscape:connector-curvature="0"
   id="path4574"
   style="fill:#7ccfa5;fill-opacity:1;fill-rule:nonzero;stroke:#76c19d"
   d="m 910.32997,539.92532 19,0 0,-25 -19,0 0,25 z" /><path
   d="m 890.16997,539.92532 19,0 0,-25 -19,0 0,25 z"
   style="fill:#7ccfa5;fill-opacity:1;fill-rule:nonzero;stroke:#76c19d"
   id="path4576"
   inkscape:connector-curvature="0" /><path
   inkscape:connector-curvature="0"
   id="path4578"
   style="fill:#7ccfa5;fill-opacity:1;fill-rule:nonzero;stroke:#76c19d"
   d="m 870.00997,539.92532 19,0 0,-25 -19,0 0,25 z" /><path
   d="m 849.84997,539.92532 19,0 0,-25 -19,0 0,25 z"
   style="fill:#7ccfa5;fill-opacity:1;fill-rule:nonzero;stroke:#76c19d"
   id="path4580"
   inkscape:connector-curvature="0" /><path
   inkscape:connector-curvature="0"
   id="path4582"
   style="fill:#7ccfa5;fill-opacity:1;fill-rule:nonzero;stroke:#76c19d"
   d="m 829.68997,539.92532 19,0 0,-25 -19,0 0,25 z" /><path
   d="m 809.52997,539.92532 19,0 0,-25 -19,0 0,25 z"
   style="fill:#7ccfa5;fill-opacity:1;fill-rule:nonzero;stroke:#76c19d"
   id="path4584"
   inkscape:connector-curvature="0" /><path
   inkscape:connector-curvature="0"
   id="path4586"
   style="fill:#7ccfa5;fill-opacity:1;fill-rule:nonzero;stroke:#76c19d"
   d="m 789.36997,539.92532 19,0 0,-25 -19,0 0,25 z" /><path
   d="m 769.20997,539.92532 19,0 0,-25 -19,0 0,25 z"
   style="fill:#7ccfa5;fill-opacity:1;fill-rule:nonzero;stroke:#76c19d"
   id="path4588"
   inkscape:connector-curvature="0" /><path
   inkscape:connector-curvature="0"
   id="path4590"
   style="fill:#7ccfa5;fill-opacity:1;fill-rule:nonzero;stroke:#76c19d"
   d="m 749.04997,539.92532 19,0 0,-25 -19,0 0,25 z" /><path
   d="m 728.88997,539.92532 19,0 0,-25 -19,0 0,25 z"
   style="fill:#7ccfa5;fill-opacity:1;fill-rule:nonzero;stroke:#76c19d"
   id="path4592"
   inkscape:connector-curvature="0" /><path
   inkscape:connector-curvature="0"
   id="path4594"
   style="fill:#7ccfa5;fill-opacity:1;fill-rule:nonzero;stroke:#76c19d"
   d="m 708.72997,539.92532 19,0 0,-25 -19,0 0,25 z" /><path
   d="m 688.56997,539.92532 19,0 0,-25 -19,0 0,25 z"
   style="fill:#7ccfa5;fill-opacity:1;fill-rule:nonzero;stroke:#76c19d"
   id="path4596"
   inkscape:connector-curvature="0" /><path
   inkscape:connector-curvature="0"
   id="path4598"
   style="fill:#7ccfa5;fill-opacity:1;fill-rule:nonzero;stroke:#76c19d"
   d="m 668.40997,539.92532 19,0 0,-25 -19,0 0,25 z" /><path
   d="m 648.24997,539.92532 19,0 0,-25 -19,0 0,25 z"
   style="fill:#7ccfa5;fill-opacity:1;fill-rule:nonzero;stroke:#76c19d"
   id="path4600"
   inkscape:connector-curvature="0" /></g></svg>